<?xml version="1.0" standalone="no"?>
<!DOCTYPE svg PUBLIC "-//W3C//DTD SVG 1.1//EN" "http://www.w3.org/Graphics/SVG/1.1/DTD/svg11.dtd" >
<svg xmlns="http://www.w3.org/2000/svg" xmlns:xlink="http://www.w3.org/1999/xlink" version="1.1">
<metadata>
Created by FontForge 20150824 at Tue Apr  5 05:59:01 2016
 By Everything Fonts
Copyright (c) 1981, 1982, 1983, 1989 and 1993, Linotype Library GmbH or its affiliated Linotype-Hell companies. All rights reserved.

The digitally encoded machine readable software for producing the Typefaces licensed to you is now the property of Heidelberger Druckmaschinen AG and its licensors, and may not be reproduced, used, displayed, modified, disclosed or transferred without the express written approval of Heidelberger Druckmaschinen AG.

Copyright (c) 1988, 1990, 1993 Adobe Systems Incorporated. All Rights Reserved.
</metadata>
<defs>
<font id="HelveticaNeueL" horiz-adv-x="556" >
  <font-face 
    font-family="HelveticaNeueL"
    font-weight="300"
    font-stretch="normal"
    units-per-em="1000"
    panose-1="2 0 4 3 0 0 0 2 0 4"
    ascent="800"
    descent="-200"
    x-height="516"
    cap-height="714"
    bbox="-343 -214 1050 967"
    underline-thickness="50"
    underline-position="-175"
    unicode-range="U+0008-FB02"
  />
<missing-glyph horiz-adv-x="500" 
d="M442 504v-496h-384v496h384zM450 512h-400v-512h400v512z" />
    <glyph glyph-name=".notdef" horiz-adv-x="500" 
d="M442 504v-496h-384v496h384zM450 512h-400v-512h400v512z" />
    <glyph glyph-name=".null" horiz-adv-x="0" 
 />
    <glyph glyph-name="nonmarkingreturn" horiz-adv-x="333" 
 />
    <glyph glyph-name="controlBS" horiz-adv-x="0" 
 />
    <glyph glyph-name="controlHT" unicode="&#x9;" horiz-adv-x="278" 
 />
    <glyph glyph-name="controlCR" unicode="&#xd;" horiz-adv-x="278" 
 />
    <glyph glyph-name="controlGS" horiz-adv-x="0" 
 />
    <glyph glyph-name="space" unicode=" " horiz-adv-x="278" 
 />
    <glyph glyph-name="exclam" unicode="!" horiz-adv-x="241" 
d="M79 106v-106h84v106h-84zM87 714v-213l15 -323h38l15 323v213h-68z" />
    <glyph glyph-name="quotedbl" unicode="&#x22;" horiz-adv-x="370" 
d="M283 714h-63v-243h63v243zM150 714h-63v-243h63v243z" />
    <glyph glyph-name="numbersign" unicode="#" 
d="M201 268l22 156h141l-22 -156h-141zM386 223h111v45h-105l22 156h111v45h-105l31 222h-50l-31 -222h-141l31 222h-50l-31 -222h-116v-45h110l-22 -156h-116v-45h110l-31 -223h50l31 223h141l-31 -223h50z" />
    <glyph glyph-name="dollar" unicode="$" 
d="M92 228h-63q4 -115 58 -172.5t170 -68.5v-86h39v85q95 0 163 52.5t68 146.5q0 50 -18.5 86.5t-55 59t-71.5 34.5t-86 23v288q66 0 107 -44.5t42 -119.5h63q2 96 -60 156.5t-152 60.5v78h-39v-78q-89 0 -149.5 -53.5t-60.5 -141.5q0 -50 16 -86t48 -58t64.5 -34t81.5 -22
v-296q-164 19 -165 190zM257 676v-279q-37 9 -56 15.5t-44 21t-36 37.5t-11 56q0 75 41 112t106 37zM296 38v288q36 -9 60 -17.5t52 -24.5t42 -41t14 -59q0 -73 -49 -109.5t-119 -36.5z" />
    <glyph glyph-name="percent" unicode="%" horiz-adv-x="889" 
d="M228 706q-81 0 -120 -51.5t-39 -137.5t39 -137.5t120 -51.5t120 51.5t39 137.5t-39 137.5t-120 51.5zM667 318q56 0 81 -43.5t25 -101.5q0 -57 -25 -100t-81 -43q-40 0 -65 23.5t-33 53.5t-8 66q0 37 8 67t33 54t65 24zM667 363q-81 0 -120 -51.5t-39 -137.5t39 -137
t120 -51t120 51t39 137t-39 137.5t-120 51.5zM690 725h-47l-453 -758h48zM228 661q56 0 81 -43.5t25 -101.5q0 -57 -25 -100t-81 -43q-40 0 -65 23.5t-33 53.5t-8 66q0 37 8 67t33 54t65 24z" />
    <glyph glyph-name="ampersand" unicode="&#x26;" horiz-adv-x="611" 
d="M284 661q41 0 68 -24.5t27 -67.5q0 -33 -19 -62t-39 -45t-52 -37q-24 28 -36.5 44.5t-28 46.5t-15.5 53q0 43 27 67.5t68 24.5zM465 93l76 -93h79l-120 145q42 78 42 171h-63q0 -77 -21 -120l-156 188q67 42 103.5 83.5t36.5 101.5q0 64 -45.5 104.5t-112.5 40.5
t-112.5 -40.5t-45.5 -104.5q0 -14 2.5 -28t8.5 -28t10.5 -24t15.5 -25.5t16 -22t18.5 -23.5t16.5 -21q-175 -94 -175 -212q0 -95 60 -147t156 -52q124 0 210 107zM248 356l178 -216q-72 -102 -169 -102q-62 0 -108.5 40t-46.5 101q0 99 146 177z" />
    <glyph glyph-name="quotesingle" unicode="'" horiz-adv-x="278" 
d="M171 714h-63v-243h63v243z" />
    <glyph glyph-name="parenleft" unicode="(" horiz-adv-x="241" 
d="M192 -190h50q-58 92 -93 209t-35 224q0 279 128 486h-50q-141 -220 -141 -463q0 -125 35 -231t106 -225z" />
    <glyph glyph-name="parenright" unicode=")" horiz-adv-x="241" 
d="M49 729h-49q127 -228 127 -434q0 -277 -127 -485h49q141 220 141 462q0 124 -35 231.5t-106 225.5z" />
    <glyph glyph-name="asterisk" unicode="*" horiz-adv-x="352" 
d="M41 632l-14 -37l115 -39l-73 -98l32 -23l73 100l73 -100l32 23l-72 98l118 39l-15 37l-115 -41v123h-39v-123z" />
    <glyph glyph-name="plus" unicode="+" horiz-adv-x="600" 
d="M327 503h-53v-225h-225v-53h225v-225h53v225h225v53h-225v225z" />
    <glyph glyph-name="comma" unicode="," horiz-adv-x="278" 
d="M181 0v106h-84v-106h42q3 -24 -10.5 -54.5t-35.5 -38.5v-43q42 11 65 50t23 86z" />
    <glyph glyph-name="hyphen" unicode="-" horiz-adv-x="370" 
d="M60 304v-58h250v58h-250z" />
    <glyph glyph-name="period" unicode="." horiz-adv-x="278" 
d="M97 106v-106h84v106h-84z" />
    <glyph glyph-name="slash" unicode="/" horiz-adv-x="333" 
d="M295 729l-307 -743h53l305 743h-51z" />
    <glyph glyph-name="zero" unicode="0" 
d="M278 706q-59 0 -103.5 -22.5t-70.5 -57t-42.5 -84t-22 -96.5t-5.5 -101q0 -359 244 -359t244 360q0 54 -5.5 100.5t-22 96t-42.5 84t-70.5 57t-103.5 22.5zM278 653q181 0 181 -307q0 -308 -181 -308t-181 308q0 307 181 307z" />
    <glyph glyph-name="one" unicode="1" 
d="M97 565v-45h185v-520h63v700h-51q-6 -37 -18.5 -62.5t-27 -39t-41.5 -21t-48.5 -9.5t-61.5 -3z" />
    <glyph glyph-name="two" unicode="2" 
d="M36 0h461v58h-389q5 27 20.5 52t42 47.5t48 37.5t55 36t44.5 29q81 51 128.5 110t47.5 139q0 95 -60.5 146t-156.5 51q-111 0 -168.5 -68t-55.5 -180h63q-2 84 37.5 139.5t120.5 55.5q66 0 111.5 -38.5t45.5 -104.5q3 -47 -27.5 -91.5t-58.5 -66.5t-94 -67l-6 -4.5
t-5 -3.5l-6 -4q-45 -29 -73.5 -51.5t-60 -56t-47.5 -75t-17 -90.5z" />
    <glyph glyph-name="three" unicode="3" 
d="M96 223h-63q-8 -110 59.5 -173.5t179.5 -63.5q102 0 171.5 56t69.5 156q0 70 -38 116t-106 57v2q56 14 87 55.5t31 99.5q0 87 -63.5 132.5t-153.5 45.5q-100 0 -160.5 -64.5t-60.5 -165.5h63q-2 79 40 128t119 49q67 0 110 -33t43 -99q0 -61 -43.5 -94t-98.5 -33h-53v-53
h53q74 0 121 -38t47 -110t-53 -113.5t-126 -41.5q-84 0 -131.5 50.5t-43.5 134.5z" />
    <glyph glyph-name="four" unicode="4" 
d="M353 608v-381h-266l264 381h2zM354 700l-324 -465v-61h323v-174h58v174h105v53h-105v473h-57z" />
    <glyph glyph-name="five" unicode="5" 
d="M99 200h-63q2 -99 66 -156.5t164 -57.5q102 0 172.5 67t70.5 169q0 107 -64 174.5t-171 67.5q-42 0 -82 -17.5t-66 -47.5l-2 2l45 232h306v58h-350l-68 -363h54q55 83 156 83q78 0 128.5 -52t50.5 -130q0 -79 -48.5 -135t-126.5 -56q-73 0 -121.5 45t-50.5 117z" />
    <glyph glyph-name="six" unicode="6" 
d="M442 523h63q-22 183 -215 183q-65 0 -113.5 -29t-73.5 -69t-40.5 -93t-19 -89t-3.5 -69q0 -202 57.5 -286.5t187.5 -84.5q104 0 170.5 66.5t66.5 169.5t-63.5 168.5t-167.5 65.5q-60 0 -110.5 -32t-75.5 -84h-2q0 55 7.5 103.5t27 99t60 80.5t98.5 30q60 0 99 -35.5
t47 -94.5zM290 403q78 0 123.5 -53t45.5 -132q0 -75 -47.5 -127.5t-120.5 -52.5q-88 0 -131.5 50t-43.5 130t47 132.5t127 52.5z" />
    <glyph glyph-name="seven" unicode="7" 
d="M501 691h-450v-58h387q-145 -165 -210.5 -309.5t-77.5 -323.5h68q5 93 28 182t52.5 154.5t70 128t70.5 99t62 69.5v58z" />
    <glyph glyph-name="eight" unicode="8" 
d="M278 401q-61 -2 -105.5 31t-44.5 99q0 57 44 89.5t106 32.5q66 0 107.5 -32t41.5 -90q0 -65 -43.5 -98.5t-105.5 -31.5zM490 531q0 84 -63.5 129.5t-149.5 45.5t-149 -45.5t-63 -129.5q0 -118 114 -154v-2q-65 -12 -102.5 -60.5t-39.5 -118.5q0 -101 68 -155.5t173 -54.5
t173 54.5t68 155.5q0 72 -37 118.5t-106 60.5v2q54 16 84 56.5t30 97.5zM278 38q-78 0 -128 41t-50 117q0 74 51 114t127 38q74 2 126 -39t52 -113q0 -78 -49.5 -118t-128.5 -40z" />
    <glyph glyph-name="nine" unicode="9" 
d="M114 168h-63q22 -182 215 -182q65 0 113.5 29t73.5 68.5t40.5 92.5t19 89t3.5 69q0 202 -58 287t-187 85q-104 0 -170.5 -67t-66.5 -170t63.5 -168.5t167.5 -65.5q60 0 110.5 32t75.5 84h2q0 -55 -7.5 -103.5t-27 -99t-60 -80.5t-98.5 -30q-60 0 -99 35.5t-47 94.5z
M266 288q-78 0 -123.5 53t-45.5 132q0 75 47.5 127.5t120.5 52.5q88 0 131.5 -50t43.5 -130t-47 -132.5t-127 -52.5z" />
    <glyph glyph-name="colon" unicode=":" horiz-adv-x="278" 
d="M97 106v-106h84v106h-84zM97 500v-106h84v106h-84z" />
    <glyph glyph-name="semicolon" unicode=";" horiz-adv-x="278" 
d="M97 500v-106h84v106h-84zM181 0v106h-84v-106h42q3 -24 -10.5 -54.5t-35.5 -38.5v-43q42 11 65 50t23 86z" />
    <glyph glyph-name="less" unicode="&#x3c;" horiz-adv-x="600" 
d="M46 226l508 -233v54l-446 206l446 206v55l-508 -234v-54z" />
    <glyph glyph-name="equal" unicode="=" horiz-adv-x="600" 
d="M49 128h503v53h-503v-53zM49 325h503v53h-503v-53z" />
    <glyph glyph-name="greater" unicode="&#x3e;" horiz-adv-x="600" 
d="M46 459l446 -206l-446 -206v-54l508 233v54l-508 234v-55z" />
    <glyph glyph-name="question" unicode="?" horiz-adv-x="537" 
d="M315 106h-84v-106h84v106zM54 494h63q-2 80 40 131t121 51q59 0 101 -38t42 -97q0 -68 -65 -129q-38 -34 -55.5 -53t-34.5 -46.5t-21.5 -57.5t-3.5 -76h63q1 29 1 45t4.5 33.5t5.5 23t12 20.5t15 19t24 23.5t31 30.5q43 41 65 79.5t22 90.5q0 84 -58.5 134.5t-144.5 50.5
q-107 0 -167 -64t-60 -171z" />
    <glyph glyph-name="at" unicode="@" horiz-adv-x="800" 
d="M518 256l96 288h-53l-25 -65q-32 84 -106 84q-102 0 -169.5 -89.5t-67.5 -199.5q0 -61 36 -103t96 -42q63 0 127 66h2q3 -32 21.5 -49.5t45.5 -17.5q87 0 159.5 86.5t72.5 203.5q0 137 -96.5 224t-242.5 87q-154 0 -260.5 -106.5t-106.5 -262.5q0 -160 105 -267t266 -107
q95 0 179 47.5t130 129.5h-51q-43 -61 -113.5 -97t-144.5 -36q-136 0 -227 93.5t-91 229.5q0 140 89 235.5t227 95.5q120 0 202 -71.5t82 -191.5q0 -87 -52 -167.5t-117 -80.5q-38 0 -13 83zM426 510q29 0 54 -29t25 -64q0 -73 -51 -154t-115 -81q-37 0 -60 26.5t-23 70.5
q0 78 49.5 154.5t120.5 76.5z" />
    <glyph glyph-name="A" unicode="A" horiz-adv-x="630" 
d="M454 280h-281l143 366zM357 714h-76l-287 -714h72l86 222h325l87 -222h73z" />
    <glyph glyph-name="B" unicode="B" horiz-adv-x="667" 
d="M374 401h-234v255h234q161 0 161 -134q0 -53 -41.5 -87t-119.5 -34zM374 714h-302v-714h302q66 0 115.5 15t75.5 36.5t41.5 51.5t19.5 52.5t4 47.5q0 70 -41 117.5t-110 56.5v2q55 12 89.5 57.5t34.5 102.5q0 63 -33.5 104t-82 56t-113.5 15zM374 58h-234v285h234
q188 0 188 -138q0 -147 -188 -147z" />
    <glyph glyph-name="C" unicode="C" horiz-adv-x="704" 
d="M594 498h68q-14 107 -96.5 169t-190.5 62q-82 0 -147.5 -30.5t-106 -82.5t-62 -118t-21.5 -141q0 -101 36.5 -183.5t114.5 -135t186 -52.5q125 0 204 76.5t93 209.5h-68q-10 -99 -71.5 -164t-157.5 -65q-68 0 -121 27t-84.5 72t-47.5 99.5t-16 115.5t16 115.5t47.5 99.5
t84.5 72t121 27q80 0 140.5 -46t78.5 -127z" />
    <glyph glyph-name="D" unicode="D" horiz-adv-x="685" 
d="M319 714h-247v-714h247q328 8 328 357t-328 357zM285 58h-145v598h145q155 0 224.5 -70t69.5 -229t-69.5 -229t-224.5 -70z" />
    <glyph glyph-name="E" unicode="E" horiz-adv-x="593" 
d="M565 714h-493v-714h498v58h-430v282h398v58h-398v258h425v58z" />
    <glyph glyph-name="F" unicode="F" horiz-adv-x="537" 
d="M525 714h-453v-714h68v340h342v58h-342v258h385v58z" />
    <glyph glyph-name="G" unicode="G" horiz-adv-x="741" 
d="M633 0h49v363h-303v-58h243q2 -116 -64.5 -189t-182.5 -73q-68 0 -121 27t-84.5 72t-47.5 99.5t-16 115.5t16 115.5t47.5 99.5t84.5 72t121 27q95 0 159 -56t71 -123h68q-19 114 -100.5 175.5t-197.5 61.5q-82 0 -147.5 -30.5t-106 -82.5t-62 -118t-21.5 -141
q0 -101 36.5 -183.5t114.5 -135t186 -52.5q82 0 147.5 35.5t99.5 108.5h2z" />
    <glyph glyph-name="H" unicode="H" horiz-adv-x="704" 
d="M140 714h-68v-714h68v346h424v-346h68v714h-68v-310h-424v310z" />
    <glyph glyph-name="I" unicode="I" horiz-adv-x="222" 
d="M145 714h-68v-714h68v714z" />
    <glyph glyph-name="J" unicode="J" horiz-adv-x="500" 
d="M428 714h-68v-486q0 -102 -28 -143.5t-106 -41.5q-20 0 -37.5 4t-30 9t-23 16t-17.5 18.5t-12 23t-7.5 23.5t-5 25.5t-2.5 23t-1 23.5t-1 20h-68q0 -40 5 -73.5t18 -66t35 -54.5t57.5 -35.5t83.5 -13.5q113 0 160.5 50.5t47.5 162.5v515z" />
    <glyph glyph-name="K" unicode="K" horiz-adv-x="648" 
d="M140 714h-68v-714h68v245l137 127l297 -372h88l-334 419l319 295h-92l-415 -384v384z" />
    <glyph glyph-name="L" unicode="L" horiz-adv-x="537" 
d="M140 714h-68v-714h468v58h-400v656z" />
    <glyph glyph-name="M" unicode="M" horiz-adv-x="833" 
d="M170 714h-100v-714h68v617h2l245 -617h64l244 617h2v-617h68v714h-100l-246 -626z" />
    <glyph glyph-name="N" unicode="N" horiz-adv-x="704" 
d="M147 714h-76v-714h68v604h2l416 -604h76v714h-68v-604h-2z" />
    <glyph glyph-name="O" unicode="O" horiz-adv-x="741" 
d="M102 357q0 61 16 115.5t47.5 99.5t84.5 72t121 27t121 -27t84 -72t47 -99.5t16 -115.5t-16 -115.5t-47 -99.5t-84 -72t-121 -27t-121 27t-84.5 72t-47.5 99.5t-16 115.5zM34 357q0 -101 36.5 -183.5t114.5 -135t186 -52.5t185.5 52.5t114 135t36.5 183.5t-36.5 183.5
t-114 135.5t-185.5 53q-82 0 -147.5 -30.5t-106 -82.5t-62 -118t-21.5 -141z" />
    <glyph glyph-name="P" unicode="P" horiz-adv-x="630" 
d="M374 364h-234v292h234q74 0 116.5 -37t42.5 -109t-42.5 -109t-116.5 -37zM389 714h-317v-714h68v306h249q97 0 154.5 54t57.5 150t-57.5 150t-154.5 54z" />
    <glyph glyph-name="Q" unicode="Q" horiz-adv-x="741" 
d="M556 38l111 -83l34 42l-102 77q108 104 108 283q0 101 -36.5 183.5t-114 135.5t-185.5 53q-82 0 -147.5 -30.5t-106 -82.5t-62 -118t-21.5 -141q0 -101 36.5 -183.5t114.5 -135t186 -52.5q112 0 185 52zM548 113l-104 79l-35 -43l94 -71q-56 -35 -132 -35q-68 0 -121 27
t-84.5 72t-47.5 99.5t-16 115.5t16 115.5t47.5 99.5t84.5 72t121 27t121 -27t84 -72t47 -99.5t16 -115.5q0 -159 -91 -244z" />
    <glyph glyph-name="R" unicode="R" horiz-adv-x="667" 
d="M394 375h-254v281h254q76 0 115 -37.5t39 -104.5q0 -63 -44.5 -101t-109.5 -38zM399 714h-327v-714h68v317h258q37 1 63.5 -11t41 -29.5t23 -49t11 -55t4.5 -61.5q1 -6 2 -25.5t2.5 -32t5 -28.5t9.5 -25h75q-9 10 -15 26t-9 41t-4.5 39t-3 44t-1.5 33q-4 71 -31.5 111.5
t-93.5 49.5v2q67 14 103 63t36 119q0 92 -61.5 139t-155.5 47z" />
    <glyph glyph-name="S" unicode="S" horiz-adv-x="630" 
d="M104 235h-68q-6 -125 72.5 -187t212.5 -62q72 0 125.5 17t80.5 40t43.5 54t20 51.5t3.5 40.5q0 80 -49 122.5t-136 65.5l-174 43q-108 24 -108 109q0 74 50.5 108t128.5 34q80 0 135.5 -43t59.5 -121h68q0 105 -76 163.5t-188 58.5q-71 0 -122.5 -21t-76.5 -54t-36 -64.5
t-11 -61.5q0 -77 43 -114.5t118 -57.5l159 -39q147 -35 147 -129q0 -48 -32.5 -83t-74 -48.5t-82.5 -13.5q-237 0 -233 192z" />
    <glyph glyph-name="T" unicode="T" 
d="M561 714h-565v-58h248v-656h68v656h249v58z" />
    <glyph glyph-name="U" unicode="U" horiz-adv-x="685" 
d="M133 714h-68v-457q0 -120 68.5 -195.5t208.5 -75.5q141 0 209.5 75.5t68.5 195.5v457h-68v-442q0 -120 -53.5 -174.5t-156.5 -54.5t-156 54.5t-53 174.5v442z" />
    <glyph glyph-name="V" unicode="V" horiz-adv-x="593" 
d="M66 714h-72l264 -714h79l265 714h-72l-230 -639h-2z" />
    <glyph glyph-name="W" unicode="W" horiz-adv-x="907" 
d="M73 714h-73l198 -714h74l180 639h2l181 -639h72l197 714h-68l-163 -625h-2l-175 625h-85l-174 -625h-2z" />
    <glyph glyph-name="X" unicode="X" horiz-adv-x="574" 
d="M83 714h-80l242 -346l-256 -368h76l220 315l217 -315h82l-258 366l244 348h-76l-209 -299z" />
    <glyph glyph-name="Y" unicode="Y" horiz-adv-x="611" 
d="M-9 714l280 -420v-294h68v294l282 420h-81l-234 -362l-235 362h-80z" />
    <glyph glyph-name="Z" unicode="Z" horiz-adv-x="574" 
d="M551 714h-514v-58h438l-470 -596v-60h556v58h-480l470 596v60z" />
    <glyph glyph-name="bracketleft" unicode="[" horiz-adv-x="241" 
d="M76 729v-919h161v53h-98v813h98v53h-161z" />
    <glyph glyph-name="backslash" unicode="\" horiz-adv-x="333" 
d="M-12 729l304 -743h54l-308 743h-50z" />
    <glyph glyph-name="bracketright" unicode="]" horiz-adv-x="241" 
d="M165 -190v919h-161v-53h98v-813h-98v-53h161z" />
    <glyph glyph-name="asciicircum" unicode="^" horiz-adv-x="600" 
d="M274 691l-230 -453h58l197 390l200 -390h57l-230 453h-52z" />
    <glyph glyph-name="underscore" unicode="_" horiz-adv-x="500" 
d="M0 -74v-50h500v50h-500z" />
    <glyph glyph-name="grave" unicode="`" horiz-adv-x="185" 
d="M47 729h-77l131 -141h51z" />
    <glyph glyph-name="a" unicode="a" horiz-adv-x="519" 
d="M54 358h63q2 61 38.5 90.5t99.5 29.5t99 -23.5t36 -82.5q0 -40 -18.5 -53t-62.5 -17q-9 -1 -26 -3q-37 -4 -55 -6.5t-49.5 -8.5t-48.5 -13t-38.5 -19t-32.5 -27.5t-19 -38t-8 -50.5q0 -75 48 -112.5t125 -37.5q71 0 111 24.5t77 79.5h2q0 -45 15 -67.5t59 -22.5
q21 0 41 4v53q-8 -4 -20 -4q-37 0 -37 38v274q0 166 -190 166q-93 0 -148 -42.5t-61 -130.5zM388 282h2v-82q0 -73 -52 -117.5t-128 -44.5q-47 0 -81 28t-34 74q0 24 11.5 42.5t26 28.5t43 18.5t48.5 12t57 9t54 8.5q45 8 53 23z" />
    <glyph glyph-name="b" unicode="b" horiz-adv-x="574" 
d="M123 714h-63v-714h58v98h2q21 -53 70.5 -82.5t113.5 -29.5q112 0 172 77t60 195q0 117 -60 195t-172 78q-60 0 -109.5 -30t-69.5 -83h-2v296zM473 258q0 -57 -16.5 -105t-56 -81.5t-96.5 -33.5q-92 0 -136.5 64.5t-44.5 155.5t44.5 155.5t136.5 64.5q57 0 96.5 -33.5
t56 -81.5t16.5 -105z" />
    <glyph glyph-name="c" unicode="c" horiz-adv-x="519" 
d="M424 354h63q-11 87 -67 132t-142 45q-114 0 -179 -78.5t-65 -194.5q0 -117 65 -194.5t179 -77.5q88 0 144 52.5t69 146.5h-63q-6 -63 -49 -105t-101 -42q-85 0 -133 65.5t-48 154.5t48 154.5t133 65.5q119 0 146 -124z" />
    <glyph glyph-name="d" unicode="d" horiz-adv-x="574" 
d="M456 0h58v714h-63v-296h-2q-19 54 -69 83.5t-110 29.5q-112 0 -172 -78t-60 -195q0 -118 60 -195t172 -77q58 0 111 31t73 81h2v-98zM101 258q0 57 16.5 105t56 81.5t96.5 33.5q92 0 136.5 -64.5t44.5 -155.5t-44.5 -155.5t-136.5 -64.5q-57 0 -96.5 33.5t-56 81.5
t-16.5 105z" />
    <glyph glyph-name="e" unicode="e" horiz-adv-x="519" 
d="M431 294h-334q9 77 53 130.5t117 53.5q72 0 117 -54.5t47 -129.5zM97 241h397q3 76 -19 140t-75.5 107t-132.5 43q-78 0 -132.5 -41t-77.5 -100.5t-23 -131.5q0 -119 58 -195.5t175 -76.5q183 0 225 184h-63q-33 -132 -162 -132q-83 0 -126.5 62t-43.5 141z" />
    <glyph glyph-name="f" unicode="f" horiz-adv-x="259" 
d="M157 463h102v53h-102v45q0 22 0.5 32.5t4 26t10.5 23t20.5 13t33.5 5.5q18 0 46 -5v54q-27 4 -53 4q-71 0 -98 -38.5t-27 -112.5v-47h-88v-53h88v-463h63v463z" />
    <glyph glyph-name="g" unicode="g" 
d="M496 42v474h-63v-89h-2q-19 44 -64 74t-100 30q-108 0 -170.5 -74.5t-62.5 -185.5q0 -119 57.5 -192t175.5 -73q56 0 99 28.5t65 77.5h2v-70q0 -194 -166 -194q-58 0 -100 25t-51 78h-63q6 -77 67.5 -116.5t146.5 -39.5q121 0 175 63.5t54 183.5zM267 59q-83 0 -126.5 60
t-43.5 145q0 89 43 151.5t127 62.5q83 0 124.5 -64t41.5 -150q0 -84 -44 -144.5t-122 -60.5z" />
    <glyph glyph-name="h" unicode="h" horiz-adv-x="537" 
d="M122 714h-63v-714h63v301q2 78 45.5 127.5t116.5 49.5q131 0 131 -156v-322h63v332q0 98 -42.5 148.5t-146.5 50.5q-55 0 -101 -28.5t-64 -75.5h-2v287z" />
    <glyph glyph-name="i" unicode="i" horiz-adv-x="185" 
d="M124 714h-63v-101h63v101zM124 516h-63v-516h63v516z" />
    <glyph glyph-name="j" unicode="j" horiz-adv-x="185" 
d="M124 714h-63v-101h63v101zM124 516h-63v-578q0 -37 -11.5 -56t-45.5 -19q-10 -1 -33 1v-52q7 0 21.5 -1t21.5 -1q110 0 110 143v563z" />
    <glyph glyph-name="k" unicode="k" horiz-adv-x="500" 
d="M123 714h-63v-714h63v196l102 85l204 -281h79l-235 325l220 191h-84l-286 -250v448z" />
    <glyph glyph-name="l" unicode="l" horiz-adv-x="185" 
d="M124 714h-63v-714h63v714z" />
    <glyph glyph-name="m" unicode="m" horiz-adv-x="833" 
d="M118 516h-58v-516h63v288q0 86 38.5 138t115.5 52q108 0 108 -128v-350h63v292q0 186 140 186q66 0 94 -32.5t28 -98.5v-347h63v350q0 181 -171 181q-53 0 -97.5 -26t-66.5 -75q-14 49 -54.5 75t-93.5 26q-116 0 -169 -102h-3v87z" />
    <glyph glyph-name="n" unicode="n" horiz-adv-x="537" 
d="M122 516h-63v-516h63v301q2 78 45.5 127.5t116.5 49.5q131 0 131 -156v-322h63v332q0 98 -42.5 148.5t-146.5 50.5q-55 0 -101 -28.5t-64 -75.5h-2v89z" />
    <glyph glyph-name="o" unicode="o" 
d="M278 478q85 0 133 -65.5t48 -154.5t-48 -154.5t-133 -65.5t-133 65.5t-48 154.5t48 154.5t133 65.5zM278 531q-114 0 -179 -78.5t-65 -194.5q0 -117 65 -194.5t179 -77.5t179 77.5t65 194.5q0 116 -65 194.5t-179 78.5z" />
    <glyph glyph-name="p" unicode="p" horiz-adv-x="574" 
d="M118 516h-58v-706h63v288h2q19 -54 69 -83t110 -29q112 0 172 77t60 195q0 117 -60 195t-172 78q-64 0 -113 -30t-71 -83h-2v98zM473 258q0 -57 -16.5 -105t-56 -81.5t-96.5 -33.5q-92 0 -136.5 64.5t-44.5 155.5q0 220 181 220q57 0 96.5 -33.5t56 -81.5t16.5 -105z" />
    <glyph glyph-name="q" unicode="q" horiz-adv-x="574" 
d="M451 -190h63v706h-58v-98h-2q-19 50 -73 81.5t-111 31.5q-112 0 -172 -78t-60 -195q0 -118 60 -195t172 -77q60 0 110 29t69 83h2v-288zM101 258q0 57 16.5 105t56 81.5t96.5 33.5q92 0 136.5 -64.5t44.5 -155.5t-44.5 -155.5t-136.5 -64.5q-57 0 -96.5 33.5t-56 81.5
t-16.5 105z" />
    <glyph glyph-name="r" unicode="r" horiz-adv-x="315" 
d="M118 516h-58v-516h63v275q0 82 54 135.5t138 49.5v63q-69 3 -120 -30.5t-75 -97.5h-2v121z" />
    <glyph glyph-name="s" unicode="s" horiz-adv-x="481" 
d="M369 365h63q-4 81 -56 123.5t-133 42.5q-78 0 -136 -36t-58 -109q0 -60 36.5 -90t107.5 -48l81 -18q54 -13 83.5 -33t29.5 -61q0 -49 -43.5 -73.5t-97.5 -24.5q-65 0 -106.5 33.5t-45.5 95.5h-63q16 -181 212 -181q83 0 145 38t62 116q0 62 -42.5 98t-104.5 45l-84 19
q-107 27 -107 87q0 46 36.5 67.5t85.5 21.5q57 0 95 -28.5t40 -84.5z" />
    <glyph glyph-name="t" unicode="t" horiz-adv-x="296" 
d="M265 516h-105v155h-63v-155h-90v-53h90v-353q-1 -65 23.5 -90t88.5 -25q10 0 28.5 1t27.5 1v53q-27 -3 -54 -3q-31 2 -41 18t-10 50v348h105v53z" />
    <glyph glyph-name="u" unicode="u" horiz-adv-x="537" 
d="M420 0h58v516h-63v-271q0 -86 -39.5 -146.5t-115.5 -60.5q-73 0 -104.5 35t-33.5 107v336h-63v-335q0 -195 181 -195q59 0 106.5 28t71.5 79h2v-93z" />
    <glyph glyph-name="v" unicode="v" horiz-adv-x="463" 
d="M72 516h-70l199 -516h67l193 516h-65l-160 -453h-2z" />
    <glyph glyph-name="w" unicode="w" horiz-adv-x="741" 
d="M75 516h-67l166 -516h69l126 434h2l127 -434h69l166 516h-67l-132 -442h-2l-126 442h-71l-126 -442h-2z" />
    <glyph glyph-name="x" unicode="x" horiz-adv-x="481" 
d="M16 516l185 -248l-200 -268h78l159 217l162 -217h80l-201 269l186 247h-79l-144 -196l-147 196h-79z" />
    <glyph glyph-name="y" unicode="y" horiz-adv-x="463" 
d="M69 516h-67l206 -514l-22 -58q-11 -24 -16 -34t-15.5 -23.5t-24.5 -18.5t-34 -5q-18 0 -43 5v-53q10 -3 48 -5q57 0 82 22t54 90l224 594h-63l-159 -440z" />
    <glyph glyph-name="z" unicode="z" horiz-adv-x="463" 
d="M446 53h-355l341 418v45h-394v-53h314l-337 -412v-51h431v53z" />
    <glyph glyph-name="braceleft" unicode="{" horiz-adv-x="333" 
d="M243 -190h50v53h-20q-28 0 -41.5 29t-13.5 74v140q0 38 -8.5 69.5t-22 50.5t-22.5 28t-17 14v2q8 5 17 14t22.5 28t22 50.5t8.5 69.5v141q0 44 13.5 73.5t41.5 29.5h20v53h-50q-42 0 -65 -33.5t-23 -91.5v-149q0 -160 -72 -160v-53q72 0 72 -160v-147q0 -58 23 -91.5
t65 -33.5z" />
    <glyph glyph-name="bar" unicode="|" horiz-adv-x="222" 
d="M138 786h-53v-999h53v999z" />
    <glyph glyph-name="braceright" unicode="}" horiz-adv-x="333" 
d="M90 729h-50v-53h20q28 0 41.5 -29.5t13.5 -73.5v-141q0 -38 8.5 -69.5t22 -50.5t22.5 -28t17 -14v-2q-8 -5 -17 -14t-22.5 -28t-22 -50.5t-8.5 -69.5v-140q0 -45 -13.5 -74t-41.5 -29h-20v-53h50q42 0 65 33.5t23 91.5v148q0 160 72 160v53q-72 0 -72 160v148
q0 58 -23 91.5t-65 33.5z" />
    <glyph glyph-name="asciitilde" unicode="~" horiz-adv-x="600" 
d="M531 279l-36 36q-14 -22 -24.5 -34.5t-27.5 -23.5t-36 -11q-22 0 -98 33q-74 32 -115 32q-83 0 -125 -86l36 -36q32 69 84 69q37 0 107 -32q68 -33 110 -33t70 22.5t55 63.5z" />
    <glyph glyph-name="nbspace" unicode="&#xa0;" horiz-adv-x="278" 
 />
    <glyph glyph-name="exclamdown" unicode="&#xa1;" horiz-adv-x="241" 
d="M163 410v106h-84v-106h84zM155 -190v205l-15 323h-38l-15 -323v-205h68z" />
    <glyph glyph-name="cent" unicode="&#xa2;" 
d="M444 354h63q-9 83 -63 129t-135 48v87h-39v-89q-101 -9 -158.5 -85.5t-57.5 -185.5t57.5 -185.5t158.5 -85.5v-102h39v101q82 3 136 56t66 143h-63q-6 -60 -45.5 -102.5t-93.5 -44.5v440q110 -4 135 -124zM270 476v-437q-73 11 -113 74.5t-40 144.5t40 144t113 74z" />
    <glyph glyph-name="sterling" unicode="&#xa3;" 
d="M109 362h-63v-32h81q28 -47 28 -105q0 -95 -112 -186l36 -53q4 3 15.5 9.5t15.5 9t13 7t14.5 6.5t14 4.5t17.5 3t20 0.5q40 0 101 -20t106 -20q78 0 146 60l-32 48q-51 -56 -115 -56q-33 0 -86 21q-49 20 -102 20q-39 0 -97 -30l-2 2q110 84 110 182q0 59 -24 97h142v32
h-160q-8 19 -25 48.5t-25.5 53.5t-8.5 55q0 76 48.5 116.5t116.5 40.5q82 0 125.5 -50t43.5 -134h63q2 112 -59 174.5t-173 62.5q-95 0 -161.5 -52.5t-66.5 -153.5q0 -74 55 -161z" />
    <glyph glyph-name="currency" unicode="&#xa4;" 
d="M94 346q0 80 54 135t131 55t131 -55t54 -135t-54 -135t-131 -55t-131 55t-54 135zM86 193l-57 -57l38 -38l56 56q69 -56 156 -56q89 0 153 55l55 -55l38 38l-54 54q56 69 56 156t-56 156l54 54l-38 38l-55 -55q-68 55 -153 55q-90 0 -156 -56l-56 56l-38 -38l56 -56
q-54 -66 -54 -154q0 -85 55 -153z" />
    <glyph glyph-name="yen" unicode="&#xa5;" 
d="M216 349h-106v-45h129l6 -10v-73h-135v-45h135v-176h63v176h137v45h-137v73l6 10h131v45h-109l211 365h-69l-201 -365l-199 365h-72z" />
    <glyph glyph-name="brokenbar" unicode="&#xa6;" horiz-adv-x="222" 
d="M138 661h-53v-250h53v250zM138 161h-53v-249h53v249z" />
    <glyph glyph-name="section" unicode="&#xa7;" 
d="M511 231q0 54 -35.5 97t-86 71t-101 53.5t-86 59.5t-35.5 75q0 44 32.5 66.5t79.5 22.5q52 0 85 -36t31 -88h63q0 86 -49.5 131.5t-135.5 45.5q-68 0 -118.5 -38.5t-50.5 -104.5q0 -65 50 -109q-48 -19 -78.5 -55.5t-30.5 -84.5q0 -54 35.5 -96.5t86 -70.5t101 -54
t86 -60t35.5 -74q0 -44 -32.5 -66.5t-79.5 -22.5q-52 0 -85 36t-31 87h-63q0 -84 49.5 -130t135.5 -46q68 0 118.5 38.5t50.5 104.5q0 64 -50 108q48 19 78.5 55.5t30.5 84.5zM448 230q0 -73 -84 -108q-22 15 -74 43.5t-87.5 49.5t-65 55t-29.5 69q0 74 82 108
q22 -15 74 -43t88 -48.5t66 -54.5t30 -71z" />
    <glyph glyph-name="dieresis" unicode="&#xa8;" horiz-adv-x="185" 
d="M-29 706v-101h67v101h-67zM147 706v-101h68v101h-68z" />
    <glyph glyph-name="copyright" unicode="&#xa9;" horiz-adv-x="800" 
d="M543 435h51q-9 71 -60.5 111t-124.5 40q-100 0 -158.5 -64t-58.5 -165t58.5 -165t158.5 -64q73 0 124.5 40t60.5 111h-51q-9 -47 -44.5 -76.5t-88.5 -29.5q-78 0 -121.5 51.5t-43.5 132.5t43.5 132.5t121.5 51.5q53 -1 88.5 -30.5t44.5 -75.5zM714 357q0 -134 -90 -226.5
t-224 -92.5q-135 0 -224.5 92t-89.5 227t89.5 227t224.5 92q134 0 224 -92.5t90 -226.5zM772 357q0 157 -107 264.5t-265 107.5t-265 -107.5t-107 -264.5q0 -158 107 -264.5t265 -106.5t265 106.5t107 264.5z" />
    <glyph glyph-name="ordfeminine" unicode="&#xaa;" horiz-adv-x="311" 
d="M7 597h47q1 34 25 52t61 18q88 0 88 -67q0 -16 -12 -22t-41 -9q-97 -9 -128 -23q-51 -23 -51 -82q0 -49 31.5 -72.5t85.5 -23.5q82 0 123 65h2q0 -30 9.5 -43t38.5 -13q6 0 27 3v34q-6 -3 -13 -3q-23 0 -25 23v172q0 100 -128 100q-134 0 -140 -109zM226 549h2v-47
q0 -43 -34.5 -69t-82.5 -26q-25 0 -47 17t-22 42q0 12 3.5 21t12.5 15t17.5 10t24 7.5t27 5.5t32 5t33.5 5q2 1 9 2.5t11 2.5t8.5 3.5t5.5 5.5z" />
    <glyph glyph-name="guillemotleft" unicode="&#xab;" horiz-adv-x="426" 
d="M60 306v-62l133 -125v67l-94 89l94 89v67zM221 306v-62l133 -125v67l-94 89l94 89v67z" />
    <glyph glyph-name="logicalnot" unicode="&#xac;" horiz-adv-x="600" 
d="M49 325h450v-214h53v267h-503v-53z" />
    <glyph glyph-name="registered" unicode="&#xae;" horiz-adv-x="800" 
d="M388 378h-70v149h97q102 0 102 -74q0 -21 -8 -35.5t-18.5 -22.5t-30 -12t-33.5 -4.5t-39 -0.5zM265 142h53v191h89l121 -191h62l-128 191q108 20 108 120q0 119 -140 119h-165v-430zM400 676q134 0 224 -92.5t90 -226.5t-90 -226.5t-224 -92.5q-135 0 -224.5 92
t-89.5 227t89.5 227t224.5 92zM400 729q-158 0 -265 -107.5t-107 -264.5q0 -158 107 -264.5t265 -106.5t265 106.5t107 264.5q0 157 -107 264.5t-265 107.5z" />
    <glyph glyph-name="overscore" unicode="&#xaf;" horiz-adv-x="185" 
d="M-71 679v-45h328v45h-328z" />
    <glyph glyph-name="degree" unicode="&#xb0;" horiz-adv-x="400" 
d="M95 562q0 44 30.5 74.5t74.5 30.5t74.5 -30.5t30.5 -74.5t-30.5 -74.5t-74.5 -30.5q-45 0 -75 30t-30 75zM56 562q0 -61 41.5 -102.5t102.5 -41.5q60 0 102 42t42 102q0 59 -42.5 101.5t-101.5 42.5q-60 0 -102 -42t-42 -102z" />
    <glyph glyph-name="plusminus" unicode="&#xb1;" horiz-adv-x="600" 
d="M552 53h-503v-53h503v53zM327 503h-53v-180h-224v-53h224v-180h53v180h225v53h-225v180z" />
    <glyph glyph-name="twosuperior" unicode="&#xb2;" horiz-adv-x="333" 
d="M24 553h47q0 49 24 81.5t75 32.5q43 0 73 -22t30 -60q0 -43 -39 -80q-22 -21 -65 -47.5t-73.5 -46t-55 -55.5t-25.5 -82h302v39h-248q6 21 24 41t32 30t44.5 27.5t35.5 20.5q54 31 84.5 66t30.5 83q0 61 -40 93t-106 32q-76 0 -114 -41t-36 -112z" />
    <glyph glyph-name="threesuperior" unicode="&#xb3;" horiz-adv-x="333" 
d="M170 517h-35v-39h35q48 0 79 -22t31 -62q0 -41 -34.5 -65.5t-80.5 -24.5q-53 0 -82.5 29.5t-27.5 78.5h-47q-5 -70 38 -108.5t120 -38.5q69 0 115 35t46 97q0 42 -24.5 69.5t-69.5 33.5v2q37 8 57 33t20 60q0 54 -42 82.5t-103 28.5q-69 0 -107.5 -39t-39.5 -103h47
q-1 46 25.5 74.5t74.5 28.5q42 0 70 -19.5t28 -56.5q0 -36 -28.5 -55t-64.5 -19z" />
    <glyph glyph-name="acute" unicode="&#xb4;" horiz-adv-x="185" 
d="M33 588h51l132 141h-78z" />
    <glyph glyph-name="mu" unicode="&#xb5;" horiz-adv-x="537" 
d="M420 0h58v516h-63v-271q0 -86 -39.5 -146.5t-115.5 -60.5q-73 0 -104.5 35t-33.5 107v336h-63v-706h64v210q45 -34 117 -34q59 0 106.5 28t71.5 79h2v-93z" />
    <glyph glyph-name="paragraph" unicode="&#xb6;" horiz-adv-x="600" 
d="M273 328v-504h63v837h120v-837h63v890h-230q-107 0 -165 -50.5t-58 -145.5q0 -79 60 -134.5t147 -55.5z" />
    <glyph glyph-name="middot" unicode="&#xb7;" horiz-adv-x="278" 
d="M139 375q-23 0 -41 -17.5t-18 -40.5q0 -24 17.5 -42t41.5 -18q23 0 41 17.5t18 40.5q0 24 -17.5 42t-41.5 18z" />
    <glyph glyph-name="cedilla" unicode="&#xb8;" horiz-adv-x="185" 
d="M82 -57l44 57h-35l-61 -78l16 -15q19 8 51 8q18 0 30.5 -10.5t12.5 -27.5q0 -43 -53 -43q-45 0 -79 14l-13 -32q39 -21 93 -21q43 0 76.5 22t33.5 64t-36 55.5t-80 6.5z" />
    <glyph glyph-name="onesuperior" unicode="&#xb9;" horiz-adv-x="333" 
d="M35 623v-39h121v-310h47v423h-40q-5 -25 -14.5 -40t-29 -22t-35 -9t-49.5 -3z" />
    <glyph glyph-name="ordmasculine" unicode="&#xba;" horiz-adv-x="334" 
d="M167 407q-55 0 -86 39t-31 91t31 91t86 39t86 -39t31 -91t-31 -91t-86 -39zM162 368q81 0 125 47.5t44 121.5t-44 121.5t-125 47.5q-75 0 -117 -48t-42 -121t42 -121t117 -48z" />
    <glyph glyph-name="guillemotright" unicode="&#xbb;" horiz-adv-x="426" 
d="M166 275l-94 -89v-67l133 125v62l-133 125v-67zM327 275l-94 -89v-67l133 125v62l-133 125v-67z" />
    <glyph glyph-name="onequarter" unicode="&#xbc;" horiz-adv-x="834" 
d="M642 139h-164l162 216h2v-216zM432 100h210v-100h47v100h68v39h-68v284h-44l-213 -284v-39zM48 623v-39h121v-310h47v423h-40q-5 -25 -14.5 -40t-29 -22t-35 -9t-49.5 -3zM633 725h-47l-453 -758h48z" />
    <glyph glyph-name="onehalf" unicode="&#xbd;" horiz-adv-x="834" 
d="M489 279h47q0 49 24 81.5t75 32.5q43 0 73 -22t30 -60q0 -43 -39 -80q-22 -21 -65 -47.5t-73.5 -46t-55 -55.5t-25.5 -82h302v39h-248q6 21 24 41t32 30t44.5 27.5t35.5 20.5q54 31 84.5 66t30.5 83q0 61 -40 93t-106 32q-76 0 -114 -41t-36 -112zM48 623v-39h121v-310
h47v423h-40q-5 -25 -14.5 -40t-29 -22t-35 -9t-49.5 -3zM633 725h-47l-453 -758h48z" />
    <glyph glyph-name="threequarters" unicode="&#xbe;" horiz-adv-x="834" 
d="M642 139h-164l162 216h2v-216zM432 100h210v-100h47v100h68v39h-68v284h-44l-213 -284v-39zM673 725h-47l-453 -758h48zM170 517h-35v-39h35q48 0 79 -22t31 -62q0 -41 -34.5 -65.5t-80.5 -24.5q-53 0 -82.5 29.5t-27.5 78.5h-47q-5 -70 38 -108.5t120 -38.5q69 0 115 35
t46 97q0 42 -24.5 69.5t-69.5 33.5v2q37 8 57 33t20 60q0 54 -42 82.5t-103 28.5q-69 0 -107.5 -39t-39.5 -103h47q-1 46 25.5 74.5t74.5 28.5q42 0 70 -19.5t28 -56.5q0 -36 -28.5 -55t-64.5 -19z" />
    <glyph glyph-name="questiondown" unicode="&#xbf;" horiz-adv-x="537" 
d="M223 410h84v106h-84v-106zM484 29h-63q2 -79 -40.5 -130t-120.5 -51q-59 0 -101 38t-42 97q0 67 65 128q71 64 94 106t21 127h-63q-1 -26 -2 -40.5t-1.5 -28.5t-5.5 -24.5t-6.5 -17.5t-12 -18t-15 -16.5t-22.5 -22.5t-28 -27q-43 -40 -65 -79t-22 -90q0 -84 58.5 -134.5
t144.5 -50.5q107 0 167 63.5t60 170.5z" />
    <glyph glyph-name="Agrave" unicode="&#xc0;" horiz-adv-x="630" 
d="M270 912h-78l132 -141h51zM454 280h-281l143 366zM357 714h-76l-287 -714h72l86 222h325l87 -222h73z" />
    <glyph glyph-name="Aacute" unicode="&#xc1;" horiz-adv-x="630" 
d="M256 771h51l132 141h-78zM454 280h-281l143 366zM357 714h-76l-287 -714h72l86 222h325l87 -222h73z" />
    <glyph glyph-name="Acircumflex" unicode="&#xc2;" horiz-adv-x="630" 
d="M399 771h65l-114 141h-69l-114 -141h58l88 102zM454 280h-281l143 366zM357 714h-76l-287 -714h72l86 222h325l87 -222h73z" />
    <glyph glyph-name="Atilde" unicode="&#xc3;" horiz-adv-x="630" 
d="M472 891h-38q-14 -48 -52 -48q-15 0 -59.5 22t-75.5 22q-37 0 -61 -29t-28 -67h39q0 24 14.5 37.5t38.5 13.5q14 0 60 -23t75 -23q37 0 58.5 28t28.5 67zM454 280h-281l143 366zM357 714h-76l-287 -714h72l86 222h325l87 -222h73z" />
    <glyph glyph-name="Adieresis" unicode="&#xc4;" horiz-adv-x="630" 
d="M193 889v-101h68v101h-68zM370 889v-101h68v101h-68zM454 280h-281l143 366zM357 714h-76l-287 -714h72l86 222h325l87 -222h73z" />
    <glyph glyph-name="Aring" unicode="&#xc5;" horiz-adv-x="630" 
d="M248 860q0 29 19.5 48.5t48.5 19.5t48.5 -19.5t19.5 -48.5t-19.5 -48.5t-48.5 -19.5t-48.5 19.5t-19.5 48.5zM209 860q0 -44 31.5 -75.5t75.5 -31.5t75.5 31.5t31.5 75.5t-31.5 75.5t-75.5 31.5t-75.5 -31.5t-31.5 -75.5zM454 280h-281l143 366zM357 714h-76l-287 -714
h72l86 222h325l87 -222h73z" />
    <glyph glyph-name="AE" unicode="&#xc6;" horiz-adv-x="907" 
d="M445 656v-372h-229l189 372h40zM884 58h-371v282h344v58h-344v258h367v58h-513l-373 -714h76l116 226h259v-226h439v58z" />
    <glyph glyph-name="Ccedilla" unicode="&#xc7;" horiz-adv-x="704" 
d="M672 272h-68q-10 -99 -71.5 -164t-157.5 -65q-68 0 -121 27t-84.5 72t-47.5 99.5t-16 115.5t16 115.5t47.5 99.5t84.5 72t121 27q80 0 140.5 -46t78.5 -127h68q-14 107 -96.5 169t-190.5 62q-82 0 -147.5 -30.5t-106 -82.5t-62 -118t-21.5 -141q0 -70 19 -133.5
t55.5 -114t95 -83t132.5 -38.5l-51 -66l16 -15q19 8 51 8q18 0 30.5 -10.5t12.5 -27.5q0 -43 -53 -43q-45 0 -79 14l-14 -32q41 -21 94 -21q43 0 76.5 22t33.5 64t-36 55.5t-80 6.5l33 43h1q125 0 204 76.5t93 209.5z" />
    <glyph glyph-name="Egrave" unicode="&#xc8;" horiz-adv-x="593" 
d="M251 912h-78l132 -141h51zM565 714h-493v-714h498v58h-430v282h398v58h-398v258h425v58z" />
    <glyph glyph-name="Eacute" unicode="&#xc9;" horiz-adv-x="593" 
d="M237 771h51l132 141h-78zM565 714h-493v-714h498v58h-430v282h398v58h-398v258h425v58z" />
    <glyph glyph-name="Ecircumflex" unicode="&#xca;" horiz-adv-x="593" 
d="M380 771h65l-114 141h-69l-114 -141h58l88 102zM565 714h-493v-714h498v58h-430v282h398v58h-398v258h425v58z" />
    <glyph glyph-name="Edieresis" unicode="&#xcb;" horiz-adv-x="593" 
d="M174 889v-101h68v101h-68zM351 889v-101h68v101h-68zM565 714h-493v-714h498v58h-430v282h398v58h-398v258h425v58z" />
    <glyph glyph-name="Igrave" unicode="&#xcc;" horiz-adv-x="222" 
d="M66 912h-77l131 -141h51zM145 714h-68v-714h68v714z" />
    <glyph glyph-name="Iacute" unicode="&#xcd;" horiz-adv-x="222" 
d="M52 771h51l132 141h-78zM145 714h-68v-714h68v714z" />
    <glyph glyph-name="Icircumflex" unicode="&#xce;" horiz-adv-x="222" 
d="M195 771h65l-114 141h-69l-113 -141h57l88 102zM145 714h-68v-714h68v714z" />
    <glyph glyph-name="Idieresis" unicode="&#xcf;" horiz-adv-x="222" 
d="M-10 889v-101h67v101h-67zM166 889v-101h68v101h-68zM145 714h-68v-714h68v714z" />
    <glyph glyph-name="Eth" unicode="&#xd0;" horiz-adv-x="685" 
d="M319 714h-247v-321h-72v-45h72v-348h247q328 8 328 357t-328 357zM376 393h-236v263h145q155 0 224.5 -70t69.5 -229t-69.5 -229t-224.5 -70h-145v290h236v45z" />
    <glyph glyph-name="Ntilde" unicode="&#xd1;" horiz-adv-x="704" 
d="M509 891h-38q-14 -48 -52 -48q-15 0 -59.5 22t-75.5 22q-37 0 -61 -29t-28 -67h39q0 24 14.5 37.5t38.5 13.5q15 0 60 -23t75 -23q37 0 58.5 28t28.5 67zM147 714h-76v-714h68v604h2l416 -604h76v714h-68v-604h-2z" />
    <glyph glyph-name="Ograve" unicode="&#xd2;" horiz-adv-x="741" 
d="M325 912h-78l132 -141h51zM102 357q0 61 16 115.5t47.5 99.5t84.5 72t121 27t121 -27t84 -72t47 -99.5t16 -115.5t-16 -115.5t-47 -99.5t-84 -72t-121 -27t-121 27t-84.5 72t-47.5 99.5t-16 115.5zM34 357q0 -101 36.5 -183.5t114.5 -135t186 -52.5t185.5 52.5t114 135
t36.5 183.5t-36.5 183.5t-114 135.5t-185.5 53q-82 0 -147.5 -30.5t-106 -82.5t-62 -118t-21.5 -141z" />
    <glyph glyph-name="Oacute" unicode="&#xd3;" horiz-adv-x="741" 
d="M311 771h51l132 141h-78zM102 357q0 61 16 115.5t47.5 99.5t84.5 72t121 27t121 -27t84 -72t47 -99.5t16 -115.5t-16 -115.5t-47 -99.5t-84 -72t-121 -27t-121 27t-84.5 72t-47.5 99.5t-16 115.5zM34 357q0 -101 36.5 -183.5t114.5 -135t186 -52.5t185.5 52.5t114 135
t36.5 183.5t-36.5 183.5t-114 135.5t-185.5 53q-82 0 -147.5 -30.5t-106 -82.5t-62 -118t-21.5 -141z" />
    <glyph glyph-name="Ocircumflex" unicode="&#xd4;" horiz-adv-x="741" 
d="M454 771h65l-114 141h-69l-114 -141h58l88 102zM102 357q0 61 16 115.5t47.5 99.5t84.5 72t121 27t121 -27t84 -72t47 -99.5t16 -115.5t-16 -115.5t-47 -99.5t-84 -72t-121 -27t-121 27t-84.5 72t-47.5 99.5t-16 115.5zM34 357q0 -101 36.5 -183.5t114.5 -135t186 -52.5
t185.5 52.5t114 135t36.5 183.5t-36.5 183.5t-114 135.5t-185.5 53q-82 0 -147.5 -30.5t-106 -82.5t-62 -118t-21.5 -141z" />
    <glyph glyph-name="Otilde" unicode="&#xd5;" horiz-adv-x="741" 
d="M527 891h-38q-14 -48 -52 -48q-15 0 -59.5 22t-75.5 22q-37 0 -61 -29t-28 -67h39q0 24 14.5 37.5t38.5 13.5q15 0 60 -23t75 -23q37 0 58.5 28t28.5 67zM102 357q0 61 16 115.5t47.5 99.5t84.5 72t121 27t121 -27t84 -72t47 -99.5t16 -115.5t-16 -115.5t-47 -99.5
t-84 -72t-121 -27t-121 27t-84.5 72t-47.5 99.5t-16 115.5zM34 357q0 -101 36.5 -183.5t114.5 -135t186 -52.5t185.5 52.5t114 135t36.5 183.5t-36.5 183.5t-114 135.5t-185.5 53q-82 0 -147.5 -30.5t-106 -82.5t-62 -118t-21.5 -141z" />
    <glyph glyph-name="Odieresis" unicode="&#xd6;" horiz-adv-x="741" 
d="M248 889v-101h68v101h-68zM425 889v-101h68v101h-68zM102 357q0 61 16 115.5t47.5 99.5t84.5 72t121 27t121 -27t84 -72t47 -99.5t16 -115.5t-16 -115.5t-47 -99.5t-84 -72t-121 -27t-121 27t-84.5 72t-47.5 99.5t-16 115.5zM34 357q0 -101 36.5 -183.5t114.5 -135
t186 -52.5t185.5 52.5t114 135t36.5 183.5t-36.5 183.5t-114 135.5t-185.5 53q-82 0 -147.5 -30.5t-106 -82.5t-62 -118t-21.5 -141z" />
    <glyph glyph-name="multiply" unicode="&#xd7;" horiz-adv-x="600" 
d="M111 477l-37 -37l188 -189l-188 -189l37 -37l189 188l189 -188l37 37l-189 189l189 189l-37 37l-189 -189z" />
    <glyph glyph-name="Oslash" unicode="&#xd8;" horiz-adv-x="741" 
d="M625 615l73 81l-26 23l-71 -78q-88 88 -230 88q-82 0 -147.5 -30.5t-106 -82.5t-62 -118t-21.5 -141q0 -155 82 -256l-79 -88l27 -24l76 85q88 -88 231 -88q108 0 185.5 52.5t114 135t36.5 183.5q0 158 -82 258zM558 593l-398 -443q-58 83 -58 207q0 61 16 115.5
t47.5 99.5t84.5 72t121 27q116 0 187 -78zM183 122l397 443q59 -82 59 -208q0 -61 -16 -115.5t-47 -99.5t-84 -72t-121 -27q-117 0 -188 79z" />
    <glyph glyph-name="Ugrave" unicode="&#xd9;" horiz-adv-x="685" 
d="M297 912h-78l132 -141h51zM133 714h-68v-457q0 -120 68.5 -195.5t208.5 -75.5q141 0 209.5 75.5t68.5 195.5v457h-68v-442q0 -120 -53.5 -174.5t-156.5 -54.5t-156 54.5t-53 174.5v442z" />
    <glyph glyph-name="Uacute" unicode="&#xda;" horiz-adv-x="685" 
d="M283 771h51l132 141h-78zM133 714h-68v-457q0 -120 68.5 -195.5t208.5 -75.5q141 0 209.5 75.5t68.5 195.5v457h-68v-442q0 -120 -53.5 -174.5t-156.5 -54.5t-156 54.5t-53 174.5v442z" />
    <glyph glyph-name="Ucircumflex" unicode="&#xdb;" horiz-adv-x="685" 
d="M426 771h65l-114 141h-69l-114 -141h58l88 102zM133 714h-68v-457q0 -120 68.5 -195.5t208.5 -75.5q141 0 209.5 75.5t68.5 195.5v457h-68v-442q0 -120 -53.5 -174.5t-156.5 -54.5t-156 54.5t-53 174.5v442z" />
    <glyph glyph-name="Udieresis" unicode="&#xdc;" horiz-adv-x="685" 
d="M220 889v-101h68v101h-68zM397 889v-101h68v101h-68zM133 714h-68v-457q0 -120 68.5 -195.5t208.5 -75.5q141 0 209.5 75.5t68.5 195.5v457h-68v-442q0 -120 -53.5 -174.5t-156.5 -54.5t-156 54.5t-53 174.5v442z" />
    <glyph glyph-name="Yacute" unicode="&#xdd;" horiz-adv-x="611" 
d="M246 771h51l132 141h-78zM-9 714l280 -420v-294h68v294l282 420h-81l-234 -362l-235 362h-80z" />
    <glyph glyph-name="Thorn" unicode="&#xde;" horiz-adv-x="630" 
d="M374 247h-234v292h234q74 0 116.5 -37t42.5 -109t-42.5 -109t-116.5 -37zM140 714h-68v-714h68v189h249q97 0 154.5 54t57.5 150t-57.5 150t-154.5 54h-249v117z" />
    <glyph glyph-name="germandbls" unicode="&#xdf;" horiz-adv-x="537" 
d="M61 535v-535h63v530q0 74 32 110t105 36q55 0 93.5 -35t38.5 -90q0 -130 -173 -130v-53q51 0 85.5 -6t64.5 -23t44.5 -50t14.5 -84q0 -81 -47 -120.5t-115 -39.5q-26 0 -47 4v-54q18 -2 25 -2h25q100 2 161 59t61 164q0 72 -39.5 125.5t-109.5 59.5v2q53 12 83 53.5
t30 96.5q0 82 -56 129t-140 47q-92 0 -145.5 -49t-53.5 -145z" />
    <glyph glyph-name="agrave" unicode="&#xe0;" horiz-adv-x="519" 
d="M214 729h-78l132 -141h51zM54 358h63q2 61 38.5 90.5t99.5 29.5t99 -23.5t36 -82.5q0 -40 -18.5 -53t-62.5 -17q-9 -1 -26 -3q-37 -4 -55 -6.5t-49.5 -8.5t-48.5 -13t-38.5 -19t-32.5 -27.5t-19 -38t-8 -50.5q0 -75 48 -112.5t125 -37.5q71 0 111 24.5t77 79.5h2
q0 -45 15 -67.5t59 -22.5q21 0 41 4v53q-8 -4 -20 -4q-37 0 -37 38v274q0 166 -190 166q-93 0 -148 -42.5t-61 -130.5zM388 282h2v-82q0 -73 -52 -117.5t-128 -44.5q-47 0 -81 28t-34 74q0 24 11.5 42.5t26 28.5t43 18.5t48.5 12t57 9t54 8.5q45 8 53 23z" />
    <glyph glyph-name="aacute" unicode="&#xe1;" horiz-adv-x="519" 
d="M200 588h51l132 141h-78zM54 358h63q2 61 38.5 90.5t99.5 29.5t99 -23.5t36 -82.5q0 -40 -18.5 -53t-62.5 -17q-9 -1 -26 -3q-37 -4 -55 -6.5t-49.5 -8.5t-48.5 -13t-38.5 -19t-32.5 -27.5t-19 -38t-8 -50.5q0 -75 48 -112.5t125 -37.5q71 0 111 24.5t77 79.5h2
q0 -45 15 -67.5t59 -22.5q21 0 41 4v53q-8 -4 -20 -4q-37 0 -37 38v274q0 166 -190 166q-93 0 -148 -42.5t-61 -130.5zM388 282h2v-82q0 -73 -52 -117.5t-128 -44.5q-47 0 -81 28t-34 74q0 24 11.5 42.5t26 28.5t43 18.5t48.5 12t57 9t54 8.5q45 8 53 23z" />
    <glyph glyph-name="acircumflex" unicode="&#xe2;" horiz-adv-x="519" 
d="M343 588h65l-114 141h-69l-114 -141h58l88 102zM54 358h63q2 61 38.5 90.5t99.5 29.5t99 -23.5t36 -82.5q0 -40 -18.5 -53t-62.5 -17q-9 -1 -26 -3q-37 -4 -55 -6.5t-49.5 -8.5t-48.5 -13t-38.5 -19t-32.5 -27.5t-19 -38t-8 -50.5q0 -75 48 -112.5t125 -37.5
q71 0 111 24.5t77 79.5h2q0 -45 15 -67.5t59 -22.5q21 0 41 4v53q-8 -4 -20 -4q-37 0 -37 38v274q0 166 -190 166q-93 0 -148 -42.5t-61 -130.5zM388 282h2v-82q0 -73 -52 -117.5t-128 -44.5q-47 0 -81 28t-34 74q0 24 11.5 42.5t26 28.5t43 18.5t48.5 12t57 9t54 8.5
q45 8 53 23z" />
    <glyph glyph-name="atilde" unicode="&#xe3;" horiz-adv-x="519" 
d="M416 708h-38q-14 -48 -52 -48q-15 0 -59.5 22t-75.5 22q-37 0 -61 -29t-28 -67h39q0 24 14.5 37.5t38.5 13.5q14 0 60 -23t75 -23q37 0 58.5 28t28.5 67zM54 358h63q2 61 38.5 90.5t99.5 29.5t99 -23.5t36 -82.5q0 -40 -18.5 -53t-62.5 -17q-9 -1 -26 -3q-37 -4 -55 -6.5
t-49.5 -8.5t-48.5 -13t-38.5 -19t-32.5 -27.5t-19 -38t-8 -50.5q0 -75 48 -112.5t125 -37.5q71 0 111 24.5t77 79.5h2q0 -45 15 -67.5t59 -22.5q21 0 41 4v53q-8 -4 -20 -4q-37 0 -37 38v274q0 166 -190 166q-93 0 -148 -42.5t-61 -130.5zM388 282h2v-82q0 -73 -52 -117.5
t-128 -44.5q-47 0 -81 28t-34 74q0 24 11.5 42.5t26 28.5t43 18.5t48.5 12t57 9t54 8.5q45 8 53 23z" />
    <glyph glyph-name="adieresis" unicode="&#xe4;" horiz-adv-x="519" 
d="M137 706v-101h68v101h-68zM314 706v-101h68v101h-68zM54 358h63q2 61 38.5 90.5t99.5 29.5t99 -23.5t36 -82.5q0 -40 -18.5 -53t-62.5 -17q-9 -1 -26 -3q-37 -4 -55 -6.5t-49.5 -8.5t-48.5 -13t-38.5 -19t-32.5 -27.5t-19 -38t-8 -50.5q0 -75 48 -112.5t125 -37.5
q71 0 111 24.5t77 79.5h2q0 -45 15 -67.5t59 -22.5q21 0 41 4v53q-8 -4 -20 -4q-37 0 -37 38v274q0 166 -190 166q-93 0 -148 -42.5t-61 -130.5zM388 282h2v-82q0 -73 -52 -117.5t-128 -44.5q-47 0 -81 28t-34 74q0 24 11.5 42.5t26 28.5t43 18.5t48.5 12t57 9t54 8.5
q45 8 53 23z" />
    <glyph glyph-name="aring" unicode="&#xe5;" horiz-adv-x="519" 
d="M192 677q0 29 19.5 48.5t48.5 19.5t48.5 -19.5t19.5 -48.5t-19.5 -48.5t-48.5 -19.5t-48.5 19.5t-19.5 48.5zM153 677q0 -44 31.5 -75.5t75.5 -31.5t75.5 31.5t31.5 75.5t-31.5 75.5t-75.5 31.5t-75.5 -31.5t-31.5 -75.5zM54 358h63q2 61 38.5 90.5t99.5 29.5t99 -23.5
t36 -82.5q0 -40 -18.5 -53t-62.5 -17q-9 -1 -26 -3q-37 -4 -55 -6.5t-49.5 -8.5t-48.5 -13t-38.5 -19t-32.5 -27.5t-19 -38t-8 -50.5q0 -75 48 -112.5t125 -37.5q71 0 111 24.5t77 79.5h2q0 -45 15 -67.5t59 -22.5q21 0 41 4v53q-8 -4 -20 -4q-37 0 -37 38v274
q0 166 -190 166q-93 0 -148 -42.5t-61 -130.5zM388 282h2v-82q0 -73 -52 -117.5t-128 -44.5q-47 0 -81 28t-34 74q0 24 11.5 42.5t26 28.5t43 18.5t48.5 12t57 9t54 8.5q45 8 53 23z" />
    <glyph glyph-name="ae" unicode="&#xe6;" horiz-adv-x="870" 
d="M453 241h388q0 60 -11.5 109.5t-36 91.5t-69.5 65.5t-106 23.5q-60 0 -111 -28t-70 -79h-2q-16 107 -172 107q-93 0 -148 -42.5t-61 -130.5h63q2 61 38.5 90.5t99.5 29.5t99 -23.5t36 -82.5q0 -40 -18.5 -53t-62.5 -17q-9 -1 -26 -3q-37 -4 -55 -6.5t-49.5 -8.5
t-48.5 -13t-38.5 -19t-32.5 -27.5t-19 -38t-8 -50.5q0 -75 48 -112.5t125 -37.5q76 0 140.5 34t75.5 95h2q45 -129 189 -129q183 0 225 181h-63q-30 -129 -153 -129q-86 0 -130 58.5t-38 144.5zM388 282h2v-82q0 -73 -52 -117.5t-128 -44.5q-47 0 -81 28t-34 74
q0 24 11.5 42.5t26 28.5t43 18.5t48.5 12t57 9t54 8.5q45 8 53 23zM778 294h-325q-2 76 42.5 130t119.5 54q72 0 117.5 -55t45.5 -129z" />
    <glyph glyph-name="ccedilla" unicode="&#xe7;" horiz-adv-x="519" 
d="M491 185h-63q-6 -63 -49 -105t-101 -42q-85 0 -133 65.5t-48 154.5t48 154.5t133 65.5q119 0 146 -124h63q-11 87 -67 132t-142 45q-114 0 -179 -78.5t-65 -194.5q0 -108 56.5 -183t157.5 -87l-51 -66l16 -15q19 8 51 8q18 0 30.5 -10.5t12.5 -27.5q0 -43 -53 -43
q-45 0 -79 14l-14 -32q41 -21 94 -21q43 0 76.5 22t33.5 64t-36 55.5t-80 6.5l33 43q86 2 141 54t68 145z" />
    <glyph glyph-name="egrave" unicode="&#xe8;" horiz-adv-x="519" 
d="M214 729h-78l132 -141h51zM431 294h-334q9 77 53 130.5t117 53.5q72 0 117 -54.5t47 -129.5zM97 241h397q3 76 -19 140t-75.5 107t-132.5 43q-78 0 -132.5 -41t-77.5 -100.5t-23 -131.5q0 -119 58 -195.5t175 -76.5q183 0 225 184h-63q-33 -132 -162 -132
q-83 0 -126.5 62t-43.5 141z" />
    <glyph glyph-name="eacute" unicode="&#xe9;" horiz-adv-x="519" 
d="M200 588h51l132 141h-78zM431 294h-334q9 77 53 130.5t117 53.5q72 0 117 -54.5t47 -129.5zM97 241h397q3 76 -19 140t-75.5 107t-132.5 43q-78 0 -132.5 -41t-77.5 -100.5t-23 -131.5q0 -119 58 -195.5t175 -76.5q183 0 225 184h-63q-33 -132 -162 -132q-83 0 -126.5 62
t-43.5 141z" />
    <glyph glyph-name="ecircumflex" unicode="&#xea;" horiz-adv-x="519" 
d="M343 588h65l-114 141h-69l-114 -141h58l88 102zM431 294h-334q9 77 53 130.5t117 53.5q72 0 117 -54.5t47 -129.5zM97 241h397q3 76 -19 140t-75.5 107t-132.5 43q-78 0 -132.5 -41t-77.5 -100.5t-23 -131.5q0 -119 58 -195.5t175 -76.5q183 0 225 184h-63
q-33 -132 -162 -132q-83 0 -126.5 62t-43.5 141z" />
    <glyph glyph-name="edieresis" unicode="&#xeb;" horiz-adv-x="519" 
d="M137 706v-101h68v101h-68zM314 706v-101h68v101h-68zM431 294h-334q9 77 53 130.5t117 53.5q72 0 117 -54.5t47 -129.5zM97 241h397q3 76 -19 140t-75.5 107t-132.5 43q-78 0 -132.5 -41t-77.5 -100.5t-23 -131.5q0 -119 58 -195.5t175 -76.5q183 0 225 184h-63
q-33 -132 -162 -132q-83 0 -126.5 62t-43.5 141z" />
    <glyph glyph-name="igrave" unicode="&#xec;" horiz-adv-x="185" 
d="M47 729h-77l131 -141h51zM61 516v-516h63v516h-63z" />
    <glyph glyph-name="iacute" unicode="&#xed;" horiz-adv-x="185" 
d="M33 588h51l132 141h-78zM61 516v-516h63v516h-63z" />
    <glyph glyph-name="icircumflex" unicode="&#xee;" horiz-adv-x="185" 
d="M176 588h65l-114 141h-69l-113 -141h57l88 102zM61 516v-516h63v516h-63z" />
    <glyph glyph-name="idieresis" unicode="&#xef;" horiz-adv-x="185" 
d="M-29 706v-101h67v101h-67zM147 706v-101h68v101h-68zM61 516v-516h63v516h-63z" />
    <glyph glyph-name="eth" unicode="&#xf0;" 
d="M235 652l-100 -56l33 -32l105 59q87 -69 133 -157h-2q-37 40 -133 40q-110 0 -173.5 -74t-63.5 -183q0 -117 60.5 -190t176.5 -73q120 0 182.5 76t62.5 196q0 232 -196 391l109 61l-33 32l-114 -64q-35 27 -104 64l-36 -35q34 -17 93 -55zM276 453q89 0 133 -59.5
t44 -143.5q0 -96 -46.5 -154t-132.5 -58q-88 0 -132.5 60.5t-44.5 149.5q0 90 44 147.5t135 57.5z" />
    <glyph glyph-name="ntilde" unicode="&#xf1;" horiz-adv-x="537" 
d="M425 708h-38q-14 -48 -52 -48q-15 0 -59.5 22t-75.5 22q-37 0 -61 -29t-28 -67h39q0 24 14.5 37.5t38.5 13.5q15 0 60 -23t75 -23q37 0 58.5 28t28.5 67zM122 516h-63v-516h63v301q2 78 45.5 127.5t116.5 49.5q131 0 131 -156v-322h63v332q0 98 -42.5 148.5t-146.5 50.5
q-55 0 -101 -28.5t-64 -75.5h-2v89z" />
    <glyph glyph-name="ograve" unicode="&#xf2;" 
d="M233 729h-78l132 -141h51zM278 478q85 0 133 -65.5t48 -154.5t-48 -154.5t-133 -65.5t-133 65.5t-48 154.5t48 154.5t133 65.5zM278 531q-114 0 -179 -78.5t-65 -194.5q0 -117 65 -194.5t179 -77.5t179 77.5t65 194.5q0 116 -65 194.5t-179 78.5z" />
    <glyph glyph-name="oacute" unicode="&#xf3;" 
d="M219 588h51l132 141h-78zM278 478q85 0 133 -65.5t48 -154.5t-48 -154.5t-133 -65.5t-133 65.5t-48 154.5t48 154.5t133 65.5zM278 531q-114 0 -179 -78.5t-65 -194.5q0 -117 65 -194.5t179 -77.5t179 77.5t65 194.5q0 116 -65 194.5t-179 78.5z" />
    <glyph glyph-name="ocircumflex" unicode="&#xf4;" 
d="M362 588h65l-114 141h-69l-114 -141h58l88 102zM278 478q85 0 133 -65.5t48 -154.5t-48 -154.5t-133 -65.5t-133 65.5t-48 154.5t48 154.5t133 65.5zM278 531q-114 0 -179 -78.5t-65 -194.5q0 -117 65 -194.5t179 -77.5t179 77.5t65 194.5q0 116 -65 194.5t-179 78.5z
" />
    <glyph glyph-name="otilde" unicode="&#xf5;" 
d="M435 708h-38q-14 -48 -52 -48q-15 0 -59.5 22t-75.5 22q-37 0 -61 -29t-28 -67h39q0 24 14.5 37.5t38.5 13.5q15 0 60 -23t75 -23q37 0 58.5 28t28.5 67zM278 478q85 0 133 -65.5t48 -154.5t-48 -154.5t-133 -65.5t-133 65.5t-48 154.5t48 154.5t133 65.5zM278 531
q-114 0 -179 -78.5t-65 -194.5q0 -117 65 -194.5t179 -77.5t179 77.5t65 194.5q0 116 -65 194.5t-179 78.5z" />
    <glyph glyph-name="odieresis" unicode="&#xf6;" 
d="M156 706v-101h68v101h-68zM333 706v-101h68v101h-68zM278 478q85 0 133 -65.5t48 -154.5t-48 -154.5t-133 -65.5t-133 65.5t-48 154.5t48 154.5t133 65.5zM278 531q-114 0 -179 -78.5t-65 -194.5q0 -117 65 -194.5t179 -77.5t179 77.5t65 194.5q0 116 -65 194.5
t-179 78.5z" />
    <glyph glyph-name="divide" unicode="&#xf7;" horiz-adv-x="600" 
d="M244 50q0 -23 17 -39t40 -16q22 0 38.5 17t16.5 38q0 23 -16.5 39.5t-39.5 16.5t-39.5 -16.5t-16.5 -39.5zM244 453q0 -23 17 -39.5t40 -16.5q21 0 38 17.5t17 38.5q0 23 -16.5 39.5t-39.5 16.5t-39.5 -16.5t-16.5 -39.5zM49 278v-53h503v53h-503z" />
    <glyph glyph-name="oslash" unicode="&#xf8;" 
d="M468 440l54 59l-22 20l-52 -56q-63 68 -170 68q-114 0 -179 -78.5t-65 -194.5q0 -109 56 -182l-61 -67l22 -19l59 63q62 -67 168 -67q114 0 179 77.5t65 194.5q0 106 -54 182zM151 97l273 295q35 -57 35 -134q0 -89 -48 -154.5t-133 -65.5q-80 0 -127 59zM406 418
l-273 -295q-36 58 -36 135q0 89 48 154.5t133 65.5q80 0 128 -60z" />
    <glyph glyph-name="ugrave" unicode="&#xf9;" horiz-adv-x="537" 
d="M223 729h-78l132 -141h51zM420 0h58v516h-63v-271q0 -86 -39.5 -146.5t-115.5 -60.5q-73 0 -104.5 35t-33.5 107v336h-63v-335q0 -195 181 -195q59 0 106.5 28t71.5 79h2v-93z" />
    <glyph glyph-name="uacute" unicode="&#xfa;" horiz-adv-x="537" 
d="M209 588h51l132 141h-78zM420 0h58v516h-63v-271q0 -86 -39.5 -146.5t-115.5 -60.5q-73 0 -104.5 35t-33.5 107v336h-63v-335q0 -195 181 -195q59 0 106.5 28t71.5 79h2v-93z" />
    <glyph glyph-name="ucircumflex" unicode="&#xfb;" horiz-adv-x="537" 
d="M352 588h65l-114 141h-69l-114 -141h58l88 102zM420 0h58v516h-63v-271q0 -86 -39.5 -146.5t-115.5 -60.5q-73 0 -104.5 35t-33.5 107v336h-63v-335q0 -195 181 -195q59 0 106.5 28t71.5 79h2v-93z" />
    <glyph glyph-name="udieresis" unicode="&#xfc;" horiz-adv-x="537" 
d="M146 706v-101h68v101h-68zM323 706v-101h68v101h-68zM420 0h58v516h-63v-271q0 -86 -39.5 -146.5t-115.5 -60.5q-73 0 -104.5 35t-33.5 107v336h-63v-335q0 -195 181 -195q59 0 106.5 28t71.5 79h2v-93z" />
    <glyph glyph-name="yacute" unicode="&#xfd;" horiz-adv-x="463" 
d="M172 588h51l132 141h-78zM69 516h-67l206 -514l-22 -58q-11 -24 -16 -34t-15.5 -23.5t-24.5 -18.5t-34 -5q-18 0 -43 5v-53q10 -3 48 -5q57 0 82 22t54 90l224 594h-63l-159 -440z" />
    <glyph glyph-name="thorn" unicode="&#xfe;" horiz-adv-x="574" 
d="M123 714h-63v-904h63v288h2q19 -54 69 -83t110 -29q112 0 172 77t60 195q0 117 -60 195t-172 78q-60 0 -109.5 -30t-69.5 -83h-2v296zM473 258q0 -57 -16.5 -105t-56 -81.5t-96.5 -33.5q-92 0 -136.5 64.5t-44.5 155.5t44.5 155.5t136.5 64.5q57 0 96.5 -33.5t56 -81.5
t16.5 -105z" />
    <glyph glyph-name="ydieresis" unicode="&#xff;" horiz-adv-x="463" 
d="M109 706v-101h68v101h-68zM286 706v-101h68v101h-68zM69 516h-67l206 -514l-22 -58q-11 -24 -16 -34t-15.5 -23.5t-24.5 -18.5t-34 -5q-18 0 -43 5v-53q10 -3 48 -5q57 0 82 22t54 90l224 594h-63l-159 -440z" />
    <glyph glyph-name="Cacute" unicode="&#x106;" horiz-adv-x="704" 
d="M594 498h68q-14 107 -96.5 169t-190.5 62q-82 0 -147.5 -30.5t-106 -82.5t-62 -118t-21.5 -141q0 -101 36.5 -183.5t114.5 -135t186 -52.5q125 0 204 76.5t93 209.5h-68q-10 -99 -71.5 -164t-157.5 -65q-68 0 -121 27t-84.5 72t-47.5 99.5t-16 115.5t16 115.5t47.5 99.5
t84.5 72t121 27q80 0 140.5 -46t78.5 -127zM340 771h51l132 141h-78z" />
    <glyph glyph-name="cacute" unicode="&#x107;" horiz-adv-x="519" 
d="M424 354h63q-11 87 -67 132t-142 45q-114 0 -179 -78.5t-65 -194.5q0 -117 65 -194.5t179 -77.5q88 0 144 52.5t69 146.5h-63q-6 -63 -49 -105t-101 -42q-85 0 -133 65.5t-48 154.5t48 154.5t133 65.5q119 0 146 -124zM240 588h51l132 141h-78z" />
    <glyph glyph-name="Ccaron" unicode="&#x10c;" horiz-adv-x="704" 
d="M594 498h68q-14 107 -96.5 169t-190.5 62q-82 0 -147.5 -30.5t-106 -82.5t-62 -118t-21.5 -141q0 -101 36.5 -183.5t114.5 -135t186 -52.5q125 0 204 76.5t93 209.5h-68q-10 -99 -71.5 -164t-157.5 -65q-68 0 -121 27t-84.5 72t-47.5 99.5t-16 115.5t16 115.5t47.5 99.5
t84.5 72t121 27q80 0 140.5 -46t78.5 -127zM278 912h-65l114 -141h69l114 141h-58l-88 -102z" />
    <glyph glyph-name="ccaron" unicode="&#x10d;" horiz-adv-x="519" 
d="M424 354h63q-11 87 -67 132t-142 45q-114 0 -179 -78.5t-65 -194.5q0 -117 65 -194.5t179 -77.5q88 0 144 52.5t69 146.5h-63q-6 -63 -49 -105t-101 -42q-85 0 -133 65.5t-48 154.5t48 154.5t133 65.5q119 0 146 -124zM197 729h-65l114 -141h69l114 141h-58l-88 -102z
" />
    <glyph glyph-name="Dcroat" unicode="&#x110;" horiz-adv-x="685" 
d="M319 714h-247v-321h-72v-45h72v-348h247q328 8 328 357t-328 357zM376 393h-236v263h145q155 0 224.5 -70t69.5 -229t-69.5 -229t-224.5 -70h-145v290h236v45z" />
    <glyph glyph-name="dcroat" unicode="&#x111;" horiz-adv-x="615" 
d="M306 679v-45h145v-216h-2q-19 54 -69 83.5t-110 29.5q-112 0 -172 -78t-60 -195q0 -118 60 -195t172 -77q58 0 111 31t73 81h2v-98h58v634h120v45h-120v35h-63v-35h-145zM101 258q0 57 16.5 105t56 81.5t96.5 33.5q92 0 136.5 -64.5t44.5 -155.5t-44.5 -155.5
t-136.5 -64.5q-57 0 -96.5 33.5t-56 81.5t-16.5 105z" />
    <glyph glyph-name="dotlessi" unicode="&#x131;" horiz-adv-x="185" 
d="M61 516v-516h63v516h-63z" />
    <glyph glyph-name="Lslash" unicode="&#x141;" horiz-adv-x="537" 
d="M140 714h-68v-408l-81 -56v-56l81 57v-251h468v58h-400v240l243 167v56l-243 -168v361z" />
    <glyph glyph-name="lslash" unicode="&#x142;" horiz-adv-x="185" 
d="M124 714h-63v-319l-66 -55v-55l66 55v-340h63v392l67 55v55l-67 -55v267z" />
    <glyph glyph-name="OE" unicode="&#x152;" horiz-adv-x="1074" 
d="M1005 398h-368v258h406v58h-474v-59q-67 74 -194 74q-154 0 -246 -108t-92 -264q0 -157 92 -264t246 -107q55 0 107 21.5t87 62.5v-70h477v58h-409v282h368v58zM569 509v-332q-2 -35 -18 -55q-62 -79 -176 -79q-125 0 -197.5 91t-72.5 223t72.5 223t197.5 91
q56 0 114 -26.5t75 -69.5q5 -20 5 -66z" />
    <glyph glyph-name="oe" unicode="&#x153;" horiz-adv-x="889" 
d="M800 294h-321q0 78 42 131t119 53q75 0 117.5 -53.5t42.5 -130.5zM862 166h-63q-37 -128 -159 -128q-79 0 -120 60t-41 143h384q0 146 -53.5 218t-167.5 72q-68 0 -118.5 -34.5t-71.5 -92.5h-2q-39 127 -184 127q-111 0 -170.5 -79t-59.5 -194q0 -119 56 -195.5
t171 -76.5q69 0 118 33t67 97h2q17 -62 67.5 -96t116.5 -34q90 0 148.5 46t79.5 134zM265 478q151 0 151 -216q0 -224 -152 -224q-83 0 -124 61t-41 147q0 60 13 109t52 86t101 37z" />
    <glyph glyph-name="Scaron" unicode="&#x160;" horiz-adv-x="630" 
d="M232 912h-65l114 -141h69l114 141h-58l-88 -102zM104 235h-68q-6 -125 72.5 -187t212.5 -62q72 0 125.5 17t80.5 40t43.5 54t20 51.5t3.5 40.5q0 80 -49 122.5t-136 65.5l-174 43q-108 24 -108 109q0 74 50.5 108t128.5 34q80 0 135.5 -43t59.5 -121h68q0 105 -76 163.5
t-188 58.5q-71 0 -122.5 -21t-76.5 -54t-36 -64.5t-11 -61.5q0 -77 43 -114.5t118 -57.5l159 -39q147 -35 147 -129q0 -48 -32.5 -83t-74 -48.5t-82.5 -13.5q-237 0 -233 192z" />
    <glyph glyph-name="scaron" unicode="&#x161;" horiz-adv-x="481" 
d="M157 729h-65l114 -141h69l114 141h-58l-88 -102zM369 365h63q-4 81 -56 123.5t-133 42.5q-78 0 -136 -36t-58 -109q0 -60 36.5 -90t107.5 -48l81 -18q54 -13 83.5 -33t29.5 -61q0 -49 -43.5 -73.5t-97.5 -24.5q-65 0 -106.5 33.5t-45.5 95.5h-63q16 -181 212 -181
q83 0 145 38t62 116q0 62 -42.5 98t-104.5 45l-84 19q-107 27 -107 87q0 46 36.5 67.5t85.5 21.5q57 0 95 -28.5t40 -84.5z" />
    <glyph glyph-name="Ydieresis" unicode="&#x178;" horiz-adv-x="611" 
d="M183 889v-101h68v101h-68zM360 889v-101h68v101h-68zM-9 714l280 -420v-294h68v294l282 420h-81l-234 -362l-235 362h-80z" />
    <glyph glyph-name="Zcaron" unicode="&#x17d;" horiz-adv-x="574" 
d="M204 912h-65l114 -141h69l114 141h-58l-88 -102zM551 714h-514v-58h438l-470 -596v-60h556v58h-480l470 596v60z" />
    <glyph glyph-name="zcaron" unicode="&#x17e;" horiz-adv-x="463" 
d="M148 729h-65l114 -141h69l114 141h-58l-88 -102zM446 53h-355l341 418v45h-394v-53h314l-337 -412v-51h431v53z" />
    <glyph glyph-name="florin" unicode="&#x192;" 
d="M16 -113l-9 -54q32 -5 45 -5q23 0 42 3.5t33.5 8t27.5 16t21.5 19t17 25.5t12.5 27.5t10 32.5t8 32t7 35.5t7 35.5l61 323h113l9 53h-113l14 67q1 5 5.5 25.5t6.5 27.5t7.5 25t10 25t12.5 19t17 17.5t22 10t29 5.5q26 0 46 -4l12 52q-35 5 -62 5q-36 0 -63 -10.5
t-43 -26.5t-28 -42.5t-18 -50t-14 -57.5q-3 -13 -4 -19l-13 -69h-101l-9 -53h100l-75 -393q-25 -109 -92 -112q-26 0 -52 6z" />
    <glyph glyph-name="circumflex" unicode="&#x2c6;" horiz-adv-x="185" 
d="M176 588h65l-114 141h-69l-113 -141h57l88 102z" />
    <glyph glyph-name="caron" unicode="&#x2c7;" horiz-adv-x="185" 
d="M9 729h-64l113 -141h69l114 141h-58l-88 -102z" />
    <glyph glyph-name="breve" unicode="&#x2d8;" horiz-adv-x="185" 
d="M-11 722h-39q5 -60 42.5 -93.5t98.5 -33.5q60 0 98.5 33.5t46.5 93.5h-39q-6 -38 -36 -60t-70 -22q-41 0 -70.5 21.5t-31.5 60.5z" />
    <glyph glyph-name="dotaccent" unicode="&#x2d9;" horiz-adv-x="185" 
d="M59 706v-101h68v101h-68z" />
    <glyph glyph-name="ring" unicode="&#x2da;" horiz-adv-x="185" 
d="M25 677q0 29 19.5 48.5t48.5 19.5t48.5 -19.5t19.5 -48.5t-19.5 -48.5t-48.5 -19.5t-48.5 19.5t-19.5 48.5zM-13 677q0 -45 30.5 -76t75.5 -31q44 0 75.5 31.5t31.5 75.5t-31.5 75.5t-75.5 31.5q-45 0 -75.5 -31t-30.5 -76z" />
    <glyph glyph-name="ogonek" unicode="&#x2db;" horiz-adv-x="185" 
d="M189 2h-38q-46 -27 -73.5 -56t-34 -45t-6.5 -29q0 -82 96 -82q55 0 95 67l-29 13q-24 -41 -55 -41q-19 0 -31.5 12t-12.5 35q0 57 89 126z" />
    <glyph glyph-name="tilde" unicode="&#x2dc;" horiz-adv-x="185" 
d="M249 708h-38q-14 -48 -52 -48q-15 0 -59.5 22t-75.5 22q-36 0 -60 -29t-28 -67h39q0 24 14 37.5t38 13.5q15 0 60.5 -23t74.5 -23q37 0 58.5 28t28.5 67z" />
    <glyph glyph-name="hungarumlaut" unicode="&#x2dd;" horiz-adv-x="185" 
d="M224 729l-101 -141h51l126 141h-76zM68 729l-100 -141h50l126 141h-76z" />
    <glyph glyph-name="gravecmb" unicode="&#x300;" horiz-adv-x="0" 
d="M-136 729h-77l131 -141h51z" />
    <glyph glyph-name="acutecmb" unicode="&#x301;" horiz-adv-x="0" 
d="M-150 588h51l132 141h-78z" />
    <glyph glyph-name="circumflexcmb" unicode="&#x302;" horiz-adv-x="0" 
d="M-7 588h65l-114 141h-69l-113 -141h57l88 102z" />
    <glyph glyph-name="tildecmb" unicode="&#x303;" horiz-adv-x="0" 
d="M66 708h-38q-14 -48 -52 -48q-15 0 -59.5 22t-75.5 22q-36 0 -60 -29t-28 -67h39q0 24 14 37.5t38 13.5q14 0 60 -23t75 -23q37 0 58.5 28t28.5 67z" />
    <glyph glyph-name="macroncmb" unicode="&#x304;" horiz-adv-x="0" 
d="M-255 679v-45h328v45h-328z" />
    <glyph glyph-name="brevecmb" unicode="&#x306;" horiz-adv-x="0" 
d="M-194 722h-39q5 -60 42.5 -93.5t98.5 -33.5q60 0 98.5 33.5t46.5 93.5h-39q-6 -38 -36 -60t-70 -22q-41 0 -70.5 21.5t-31.5 60.5z" />
    <glyph glyph-name="dotaccentcmb" unicode="&#x307;" horiz-adv-x="0" 
d="M-124 706v-101h68v101h-68z" />
    <glyph glyph-name="dieresiscmb" unicode="&#x308;" horiz-adv-x="0" 
d="M-212 706v-101h67v101h-67zM-36 706v-101h68v101h-68z" />
    <glyph glyph-name="ringcmb" unicode="&#x30a;" horiz-adv-x="0" 
d="M-158 677q0 29 19.5 48.5t48.5 19.5t48.5 -19.5t19.5 -48.5t-19.5 -48.5t-48.5 -19.5t-48.5 19.5t-19.5 48.5zM-196 677q0 -45 30.5 -76t75.5 -31q44 0 75.5 31.5t31.5 75.5t-31.5 75.5t-75.5 31.5q-45 0 -75.5 -31t-30.5 -76z" />
    <glyph glyph-name="hungarumlautcmb" unicode="&#x30b;" horiz-adv-x="0" 
d="M41 729l-101 -141h51l126 141h-76zM-115 729l-100 -141h50l126 141h-76z" />
    <glyph glyph-name="caroncmb" unicode="&#x30c;" horiz-adv-x="0" 
d="M-174 729h-64l113 -141h69l114 141h-58l-88 -102z" />
    <glyph glyph-name="cedillacmb" unicode="&#x327;" horiz-adv-x="0" 
d="M-101 -57l44 57h-35l-61 -78l16 -15q19 8 51 8q18 0 30.5 -10.5t12.5 -27.5q0 -43 -53 -43q-45 0 -79 14l-13 -32q39 -21 93 -21q43 0 76.5 22t33.5 64t-36 55.5t-80 6.5z" />
    <glyph glyph-name="ogonekcmb" unicode="&#x328;" horiz-adv-x="0" 
d="M6 2h-38q-46 -27 -73.5 -56t-34 -45t-6.5 -29q0 -82 96 -82q55 0 95 67l-29 13q-24 -41 -55 -41q-19 0 -31.5 12t-12.5 35q0 57 89 126z" />
    <glyph glyph-name="soliduslongoverlaycmb" unicode="&#x338;" horiz-adv-x="0" 
d="M-36 729l-307 -743h53l305 743h-51z" />
    <glyph glyph-name="Omegagreek" unicode="&#x3a9;" horiz-adv-x="768" 
d="M35 0h295l-15 142q-44 15 -66 37q-75 64 -75 211q0 124 63 195q50 56 150 56q98 0 153 -64t55 -188q0 -113 -51 -183q-31 -41 -90 -64l-16 -142h296v163h-17q-11 -39 -23 -49.5t-48 -10.5h-148v14q78 23 121.5 57.5t68.5 93.5q26 63 26 120q0 76 -40 143q-38 69 -115 107
q-73 37 -175 37q-100 0 -175.5 -37.5t-115.5 -106.5q-39 -69 -39 -143q0 -63 25.5 -120.5t69.5 -93.5q43 -34 122 -57v-14h-148q-36 0 -49 10.5t-23 49.5h-16v-163z" />
    <glyph glyph-name="pi" unicode="&#x3c0;" horiz-adv-x="505" 
d="M485 376v71h-312q-64 0 -84 -10q-25 -12 -46 -44q-22 -34 -37 -86h18q21 36 42.5 52.5t58.5 16.5h34q-11 -127 -29 -178q-17 -50 -58 -108q-26 -35 -26 -56t15.5 -33.5t37.5 -12.5q31 0 47 22q19 25 32 106q16 97 25 260h103l-13 -141q-10 -104 -10 -144
q0 -50 25.5 -76.5t69.5 -26.5q91 0 108 134h-17q-9 -59 -56 -59q-21 0 -38 15q-16 15 -16 83q0 28 3 67l10 148h113z" />
    <glyph glyph-name="endash" unicode="&#x2013;" horiz-adv-x="500" 
d="M0 304v-58h500v58h-500z" />
    <glyph glyph-name="emdash" unicode="&#x2014;" horiz-adv-x="1000" 
d="M130 304v-58h740v58h-740z" />
    <glyph glyph-name="quoteleft" unicode="&#x2018;" horiz-adv-x="278" 
d="M95 578v-107h84v106h-42q-2 27 10.5 56t36.5 38v43q-43 -11 -66 -50t-23 -86z" />
    <glyph glyph-name="quoteright" unicode="&#x2019;" horiz-adv-x="278" 
d="M183 607v107h-84v-106h42q3 -27 -10 -57t-37 -37v-43q43 11 66 50t23 86z" />
    <glyph glyph-name="quotesinglbase" unicode="&#x201a;" horiz-adv-x="278" 
d="M183 0v106h-84v-106h42q3 -25 -10.5 -55.5t-36.5 -37.5v-43q43 11 66 50t23 86z" />
    <glyph glyph-name="quotedblleft" unicode="&#x201c;" horiz-adv-x="370" 
d="M64 578v-107h84v106h-42q-2 27 10.5 56t36.5 38v43q-43 -11 -66 -50t-23 -86zM218 578v-107h84v106h-42q-2 27 10.5 56t36.5 38v43q-43 -11 -66 -50t-23 -86z" />
    <glyph glyph-name="quotedblright" unicode="&#x201d;" horiz-adv-x="370" 
d="M152 607v107h-84v-106h42q3 -27 -10 -57t-37 -37v-43q43 11 66 50t23 86zM306 607v107h-84v-106h42q3 -27 -10 -57t-37 -37v-43q43 11 66 50t23 86z" />
    <glyph glyph-name="quotedblbase" unicode="&#x201e;" horiz-adv-x="370" 
d="M152 0v106h-84v-106h42q3 -25 -10.5 -55.5t-36.5 -37.5v-43q43 11 66 50t23 86zM306 0v106h-84v-106h42q3 -25 -10.5 -55.5t-36.5 -37.5v-43q43 11 66 50t23 86z" />
    <glyph glyph-name="dagger" unicode="&#x2020;" 
d="M48 493v-53h198v-590h63v590h199v53h-199v221h-63v-221h-198z" />
    <glyph glyph-name="daggerdbl" unicode="&#x2021;" 
d="M48 100v-53h198v-197h63v197h199v53h-199v363h199v53h-199v198h-63v-198h-198v-53h198v-363h-198z" />
    <glyph glyph-name="bullet" unicode="&#x2022;" horiz-adv-x="500" 
d="M72 357q0 -74 52 -126.5t126 -52.5t126.5 52.5t52.5 126.5t-52.5 126t-126.5 52t-126 -52t-52 -126z" />
    <glyph glyph-name="ellipsis" unicode="&#x2026;" horiz-adv-x="1000" 
d="M791 106v-106h84v106h-84zM458 106v-106h84v106h-84zM125 106v-106h84v106h-84z" />
    <glyph glyph-name="perthousand" unicode="&#x2030;" horiz-adv-x="1111" 
d="M214 661q96 0 96 -124t-96 -124t-96 124t96 124zM214 706q-77 0 -113 -46t-36 -123t36 -123t113 -46t113 46t36 123t-36 123t-113 46zM901 278q96 0 96 -124t-96 -124t-96 124t96 124zM901 323q-77 0 -113 -46t-36 -123q0 -78 36 -123t113 -45t113 45t36 123
q0 77 -36 123t-113 46zM547 278q96 0 96 -124t-96 -124t-96 124t96 124zM547 323q-77 0 -113 -46t-36 -123q0 -78 36 -123t113 -45t113 45t36 123q0 77 -36 123t-113 46zM629 725h-47l-453 -758h48z" />
    <glyph glyph-name="guilsinglleft" unicode="&#x2039;" horiz-adv-x="259" 
d="M53 306v-62l133 -125v67l-94 89l94 89v67z" />
    <glyph glyph-name="guilsinglright" unicode="&#x203a;" horiz-adv-x="259" 
d="M167 275l-94 -89v-67l133 125v62l-133 125v-67z" />
    <glyph glyph-name="fraction" unicode="&#x2044;" horiz-adv-x="167" 
d="M334 725h-47l-452 -758h48z" />
    <glyph glyph-name="Euro" unicode="&#x20ac;" 
d="M530 576l27 59q-62 77 -186 77q-119 0 -195 -82q-69 -72 -92 -196h-51l-18 -45h64q-2 -32 -2 -39v-11q0 -7 1 -9h-44l-19 -45h66q15 -132 82 -211q76 -88 202 -88q100 0 176 64v77q-43 -43 -78 -63q-44 -23 -96 -23q-98 0 -158 75q-49 64 -63 169h282l19 45h-304
q-1 2 -1 8v8q0 18 3 43h321l18 45h-333q18 95 69 154q58 67 150 67q94 0 160 -79z" />
    <glyph glyph-name="trademark" unicode="&#x2122;" horiz-adv-x="990" 
d="M476 714v-412h53v364h2l146 -364h30l146 364h2v-364h53v412h-85l-129 -334l-133 334h-85zM216 669v-367h53v367h134v45h-321v-45h134z" />
    <glyph glyph-name="Omega" unicode="&#x2126;" horiz-adv-x="768" 
d="M35 0h295l-15 142q-44 15 -66 37q-75 64 -75 211q0 124 63 195q50 56 150 56q98 0 153 -64t55 -188q0 -113 -51 -183q-31 -41 -90 -64l-16 -142h296v163h-17q-11 -39 -23 -49.5t-48 -10.5h-148v14q78 23 121.5 57.5t68.5 93.5q26 63 26 120q0 76 -40 143q-38 69 -115 107
q-73 37 -175 37q-100 0 -175.5 -37.5t-115.5 -106.5q-39 -69 -39 -143q0 -63 25.5 -120.5t69.5 -93.5q43 -34 122 -57v-14h-148q-36 0 -49 10.5t-23 49.5h-16v-163z" />
    <glyph glyph-name="partialdiff" unicode="&#x2202;" horiz-adv-x="494" 
d="M454 350q-14 28 -27 41q-50 52 -126 52q-57 0 -113 -29q-63 -32 -110 -107t-47 -159q0 -75 45 -118.5t121 -43.5q129 0 214 153q75 137 75 310q2 125 -50.5 183.5t-128.5 61.5q-61 0 -104.5 -34.5t-81.5 -112.5h23q53 78 147 78q77 0 122.5 -48.5t45.5 -135.5
q0 -29 -5 -91zM445 307q-35 -153 -113 -231q-63 -63 -123 -63q-43 0 -69 30.5t-26 84.5q0 80 31 152q31 76 73 106q43 31 87 31q47 0 84.5 -28.5t55.5 -81.5z" />
    <glyph glyph-name="increment" unicode="&#x2206;" horiz-adv-x="612" 
d="M13 0h586l-280 677zM289 512l194 -472h-409z" />
    <glyph glyph-name="product" unicode="&#x220f;" horiz-adv-x="823" 
d="M217 655h388v-775q0 -42 -18 -59t-61 -17h-17v-18h292v18h-17q-43 0 -61 17t-18 59v720q0 40 18 57.5t61 17.5h17v18h-779v-18h18q43 0 61 -17.5t18 -57.5v-720q0 -42 -18 -59t-61 -17h-18v-18h292v18h-18q-43 0 -61 17t-18 59v775z" />
    <glyph glyph-name="summation" unicode="&#x2211;" horiz-adv-x="713" 
d="M21 -214h641l31 202l-19 4q-12 -49 -30 -73.5t-47 -33.5q-36 -13 -75 -13h-399l307 412l-274 370h361q55 0 84.5 -29.5t37.5 -95.5h19l-13 164h-624v-18l327 -433l-327 -438v-18z" />
    <glyph glyph-name="minus" unicode="&#x2212;" horiz-adv-x="600" 
d="M49 225h503v53h-503v-53z" />
    <glyph glyph-name="radical" unicode="&#x221a;" horiz-adv-x="549" 
d="M548 913h-36l-127 -794l-198 402l-146 -74l16 -31l97 44l242 -497z" />
    <glyph glyph-name="infinity" unicode="&#x221e;" horiz-adv-x="713" 
d="M319 326q-38 68 -69 89q-31 22 -74 22q-60 0 -105 -49q-45 -50 -45 -130q0 -81 49 -130q48 -50 118 -50q53 0 90 26.5t69 87.5q47 -81 74 -104q42 -36 90 -36q66 0 118 58q53 59 53 147q0 91 -54 147q-55 57 -133 57q-68 0 -109 -30q-39 -29 -72 -105zM366 227
q37 97 51 124q38 72 104 72q53 0 95 -47q43 -46 43 -119q0 -71 -40 -115t-101 -44q-48 0 -83 27.5t-69 101.5zM305 288q-34 -101 -58 -130q-36 -42 -82 -42q-43 0 -78 39q-34 37 -34 104q0 60 34.5 97t86.5 37q45 0 76 -25t55 -80z" />
    <glyph glyph-name="integral" unicode="&#x222b;" horiz-adv-x="274" 
d="M106 721l-8 -284q0 -93 6 -215q4 -94 12 -165q5 -42 5 -57q0 -30 -19 -30q-10 0 -25 16q-14 14 -33 14t-31.5 -13t-12.5 -34q0 -26 16 -42.5t42 -16.5q40 0 65 33q39 50 44 193q8 275 8 288q0 123 -18 324q-5 58 -5 71q0 31 20 31q9 0 19 -10q20 -17 38 -17
q19 0 31.5 13.5t12.5 36.5q0 21 -18.5 37t-42.5 16q-23 0 -46 -17t-35 -48q-21 -51 -25 -124z" />
    <glyph glyph-name="approxequal" unicode="&#x2248;" horiz-adv-x="549" 
d="M535 507h-21q-5 -44 -29.5 -67.5t-62.5 -23.5q-18 0 -32 3q-31 8 -77 29q-89 39 -142 53q-18 7 -43 7q-46 -2 -79.5 -37.5t-33.5 -95.5h21q18 89 90 89q36 0 108 -31q116 -47 134 -52q21 -7 49 -7q49 0 82.5 36t35.5 97zM535 267h-21q-5 -44 -29.5 -67.5t-62.5 -23.5
q-23 0 -32 4q-39 10 -77 28q-95 41 -142 54q-22 6 -44 6q-47 -2 -79.5 -37t-32.5 -97h21q17 90 90 90q36 0 108 -31l109 -45q51 -15 74 -15q49 0 82.5 36t35.5 98z" />
    <glyph glyph-name="notequal" unicode="&#x2260;" horiz-adv-x="549" 
d="M306 399h-294v-45h278l-71 -181h-207v-46h189l-102 -257h39l103 257h296v46h-278l70 181h208v45h-190l101 261h-39z" />
    <glyph glyph-name="lessequal" unicode="&#x2264;" horiz-adv-x="549" 
d="M12 343l524 -223v50l-464 193l464 192v50l-524 -222v-40zM537 -33h-525v-45h525v45z" />
    <glyph glyph-name="greaterequal" unicode="&#x2265;" horiz-adv-x="549" 
d="M536 382l-524 223v-50l464 -193l-464 -192v-50l524 222v40zM537 -33h-525v-45h525v45z" />
    <glyph glyph-name="lozenge" unicode="&#x25ca;" horiz-adv-x="494" 
d="M472 346l-204 348h-54l-191 -348l191 -346h54zM76 346l166 301l175 -301l-175 -300z" />
    <glyph glyph-name="apple" unicode="&#xf8ff;" horiz-adv-x="790" 
d="M408 588q-16 0 -69 15q-52 15 -89 15q-86 0 -143 -72q-56 -74 -56 -187q0 -124 74 -252q73 -129 150 -129q23 0 66 17q38 16 72 16q31 0 75 -15q42 -16 71 -16q65 0 129 97q41 62 61 125q-44 13 -79 63t-35 112q0 57 33 103q18 26 57 60q-22 27 -52 50q-47 32 -107 32
q-34 0 -87 -17t-71 -17zM561 790q0 12 -3 21q-162 -37 -164 -203q28 3 51 8q27 10 55 36q61 64 61 138z" />
    <glyph glyph-name="fi" unicode="&#xfb01;" horiz-adv-x="444" 
d="M383 714h-63v-101h63v101zM6 463h88v-463h63v463h102v53h-102v45q0 22 0.5 32.5t4 26t10.5 23t20.5 13t33.5 5.5q18 0 46 -5v54q-27 4 -53 4q-71 0 -98 -38.5t-27 -112.5v-47h-88v-53zM383 516h-63v-516h63v516z" />
    <glyph glyph-name="fl" unicode="&#xfb02;" horiz-adv-x="444" 
d="M383 714h-63v-714h63v714zM6 463h88v-463h63v463h102v53h-102v45q0 22 0.5 32.5t4 26t10.5 23t20.5 13t33.5 5.5q18 0 46 -5v54q-27 4 -53 4q-71 0 -98 -38.5t-27 -112.5v-47h-88v-53z" />
    <glyph glyph-name="NULL" horiz-adv-x="0" 
 />
    <glyph glyph-name="uniE001" horiz-adv-x="278" 
 />
    <glyph glyph-name="FL295" horiz-adv-x="0" 
 />
  </font>
</defs>
</svg>
